<?xml version="1.0" encoding="UTF-8"?>
<!DOCTYPE svg PUBLIC "-//W3C//DTD SVG 1.1//EN" "http://www.w3.org/Graphics/SVG/1.1/DTD/svg11.dtd">
<!-- Creator: CorelDRAW 2020 (64-Bit) -->
<svg xmlns="http://www.w3.org/2000/svg" xml:space="preserve" width="19.9154in" height="7.87045in" version="1.1" style="shape-rendering:geometricPrecision; text-rendering:geometricPrecision; image-rendering:optimizeQuality; fill-rule:evenodd; clip-rule:evenodd"
viewBox="0 0 4854.4 1918.43"
 xmlns:xlink="http://www.w3.org/1999/xlink"
 xmlns:xodm="http://www.corel.com/coreldraw/odm/2003">
 <defs>
  <style type="text/css">
   <![CDATA[
    .fil1 {fill:#3E4095}
    .fil0 {fill:#3E4095;fill-rule:nonzero}
   ]]>
  </style>
 </defs>
 <g id="Layer_x0020_1">
  <metadata id="CorelCorpID_0Corel-Layer"/>
  <g id="_1649249779648">
   <path class="fil0" d="M2088.05 1366.71c-100.86,-322.05 -520.42,-271.32 -563.47,-594.95 -38.58,-289.98 91.6,-284.82 91.6,-284.82 144.45,11.21 133.58,138.98 86.29,209.56 -29.73,44.37 -84.29,52.22 -91.03,37.89 -1.38,-2.94 116.17,162.31 168.56,56.69 147.71,-297.8 -155.04,-375.72 -166.55,-375.72 0,0 -279.84,-14.98 -209.11,371.48 91.44,333.26 449.69,284.85 564.97,578.22 167.18,425.43 -428.97,735.04 -489.02,144.54 -17.52,-172.35 141.43,-221.67 282.96,-138.55 10.63,6.24 -7.27,-278.22 -208.51,-209.95 -236.33,80.17 -180.89,377.87 -180.89,377.87 143.94,595.46 868.69,453.85 714.19,-172.26zm92.53 -259.76c47.46,-143.99 29.11,-245.62 175.53,-250.18 28.51,-0.89 40.87,12.95 56.79,22.45 35.4,21.13 103.86,284.17 9.17,383.14 -20.81,21.75 63.64,-20.32 88.01,-114.51 0.91,-3.51 1.82,-6.9 2.73,-10.19 -0.41,-30.19 1.74,-61.51 6.45,-93.95 6.09,-41.91 16.09,-81.09 30.02,-117.52 13.92,-36.44 31.55,-67.67 52.88,-93.7 21.33,-26.03 46,-42.23 74.02,-48.61 18.32,-4.17 33.86,-3.17 46.62,2.99 12.76,6.17 23.2,15.58 31.33,28.25 8.13,12.66 14.17,27.62 18.14,44.86 3.97,17.24 6.31,34.85 7.05,52.83 1.02,25.17 -3.43,48.26 -13.36,69.27 -9.93,21.01 -22.99,39.71 -39.18,56.1 -16.19,16.39 -34.62,30.72 -55.28,42.98 -20.67,12.27 -41.55,22.01 -62.64,29.23 -0.67,8.02 -0.94,18.06 -0.81,30.13 0.13,12.07 1,25.02 2.6,38.87 1.61,13.85 3.92,27.69 6.93,41.52 3.01,13.83 7.38,25.99 13.11,36.48 5.73,10.49 12.76,19.02 21.1,25.59 8.33,6.57 18.6,9.37 30.8,8.41 18.35,-1.15 35.31,-8.64 50.88,-22.47 15.57,-13.83 29.86,-31.3 42.87,-52.4 13.01,-21.11 24.64,-44.93 34.89,-71.45 10.25,-26.53 19.33,-53.25 27.26,-80.15 2.9,-9.83 5.64,-19.55 8.25,-29.16l0.05 -5.85c0.29,-28.49 0.93,-56.62 1.93,-84.37 1,-27.75 1.73,-52.56 2.2,-74.45 0.47,-21.88 0.71,-39.93 0.72,-54.15 0.01,-14.22 -0.7,-22.07 -2.12,-23.56 -4.03,-3.32 -8.42,-7 -13.16,-11.07 -4.74,-4.06 -7.95,-8.17 -9.61,-12.33 -1.67,-4.16 -0.82,-8.43 2.54,-12.83 3.36,-4.39 11.12,-8.58 23.28,-12.56 22.71,-7.59 40.25,-9.32 52.61,-5.18 12.36,4.14 21.4,11.46 27.13,21.95 5.73,10.49 8.94,22.46 9.62,35.92 0.68,13.45 0.76,25.99 0.24,37.6 -0.75,10.45 -1.33,19.66 -1.73,27.61 -0.4,7.95 -0.64,16.02 -0.71,24.21 -0.07,8.18 -0.23,16.68 -0.46,25.51 -0.23,8.82 -0.61,19.04 -1.13,30.65 2.71,-9.08 5.85,-18.12 9.43,-27.1 3.58,-8.98 7.05,-17.79 10.41,-26.41 9.39,-20.89 18.67,-42.36 27.83,-64.4 9.16,-22.05 19.31,-42.66 30.45,-61.83 11.14,-19.17 23.39,-35.57 36.74,-49.2 13.36,-13.63 28.66,-22.4 45.9,-26.33 24.25,-5.52 43.73,-1.64 58.46,11.64 14.72,13.28 22.45,33.15 23.16,59.6 -0.05,5.45 -0.93,19.57 -2.63,42.33 -1.7,22.77 -3.74,49.54 -6.11,80.32 -2.37,30.78 -4.51,63.48 -6.41,98.09 -1.9,34.61 -2.56,66.21 -1.98,94.81 0.58,28.6 2.5,51.9 5.77,69.91 3.27,18 8.95,26.09 17.03,24.25 5.93,-1.35 12.52,-8.6 19.78,-21.74 7.26,-13.15 14.43,-29.6 21.51,-49.36 7.08,-19.76 14.09,-41.31 21.02,-64.67 6.55,-22.05 12.6,-43.46 18.15,-64.2 -0.59,-33.11 1.63,-67.57 6.63,-103.39 6.07,-43.42 15.79,-84.04 29.16,-121.87 13.37,-37.82 30.5,-70.15 51.38,-96.99 20.89,-26.83 45.61,-43.5 74.17,-50.01 14.55,-3.31 30.32,-3.28 47.32,0.11 17,3.39 31.89,11.79 44.67,25.21 12.78,13.42 22.17,32.45 28.16,57.1 5.99,24.64 5.79,56.45 -0.6,95.4 -2.57,12.68 -6.28,21.69 -11.13,27.03 -4.86,5.34 -9.51,7.46 -13.95,6.35 -4.44,-1.11 -7.43,-5.57 -8.98,-13.38 -1.54,-7.82 -0.28,-18.53 3.79,-32.16 2.06,-9.54 3.56,-20.47 4.51,-32.78 0.95,-12.31 -0.07,-23.88 -3.04,-34.69 -2.98,-10.81 -8.02,-19.95 -15.12,-27.41 -7.1,-7.45 -17.4,-11.16 -30.91,-11.11 -14.16,-0.41 -27.1,6.78 -38.82,21.54 -11.73,14.77 -22.24,34.25 -31.54,58.44 -9.3,24.19 -17,51.5 -23.11,81.93 -6.1,30.42 -10.25,61.46 -12.45,93.11 -2.2,31.65 -2.49,62.26 -0.88,91.84 1.61,29.57 5.75,55.55 12.42,77.92 6.67,22.37 15.82,39.49 27.45,51.36 11.63,11.87 26.07,15.84 43.31,11.91 25.33,-5.77 47.34,-20.46 66.05,-44.07 18.71,-23.62 35,-53.03 48.89,-88.25 11.48,-29.14 21.57,-61.47 30.25,-97 -2.18,-37.26 -0.31,-76.3 5.62,-117.12 6.09,-41.91 16.09,-81.09 30.02,-117.53 13.92,-36.44 31.55,-67.67 52.88,-93.7 21.33,-26.03 46,-42.23 74.02,-48.61 18.32,-4.17 33.86,-3.18 46.62,2.99 12.76,6.17 23.2,15.58 31.33,28.25 8.13,12.66 14.18,27.62 18.14,44.86 3.97,17.24 6.31,34.86 7.05,52.83 1.02,25.17 -3.43,48.26 -13.36,69.27 -9.93,21.01 -22.99,39.71 -39.18,56.1 -16.19,16.39 -34.62,30.72 -55.28,42.98 -20.67,12.27 -41.55,22.01 -62.64,29.24 -0.67,8.02 -0.94,18.06 -0.81,30.13 0.13,12.07 1,25.02 2.6,38.87 1.61,13.85 3.91,27.69 6.92,41.52 3.01,13.83 7.38,25.99 13.11,36.48 5.73,10.49 12.76,19.02 21.09,25.59 8.33,6.57 18.6,9.37 30.8,8.41 18.35,-1.16 35.31,-8.65 50.88,-22.47 15.57,-13.83 29.86,-31.3 42.87,-52.4 13.01,-21.11 24.64,-44.93 34.89,-71.45 10.25,-26.53 19.34,-53.25 27.26,-80.15 7.92,-26.91 14.75,-52.96 20.47,-78.15 2.35,-10.36 4.54,-20.14 6.54,-29.34 -0.02,-1.37 0.08,-2.85 0.31,-4.43 1.91,-13.14 3.73,-25.35 5.44,-36.62 1.72,-11.28 3.48,-23.02 5.29,-35.23 1.81,-12.21 3.83,-25.52 6.06,-39.94 2.22,-14.42 4.53,-31.27 6.91,-50.57 -18.12,2.31 -32.79,2.17 -44,-0.41 -11.21,-2.59 -19.87,-6.52 -25.97,-11.78 -6.11,-5.26 -10.65,-11.18 -13.64,-17.76 -2.99,-6.58 -5.38,-12.99 -7.17,-19.24 -1.22,-3.35 -1.94,-9.84 -2.15,-19.47 -0.21,-9.63 0.37,-20.95 1.74,-33.97 1.37,-13.01 3.74,-26.71 7.1,-41.08 3.36,-14.37 8.26,-28.04 14.71,-41 6.45,-12.96 14.38,-24.14 23.79,-33.54 9.4,-9.4 20.84,-15.63 34.32,-18.7 22.63,-5.15 39.3,-2 50.01,9.48 10.71,11.47 17.62,26.53 20.74,45.18 3.12,18.65 3.65,38.48 1.61,59.52 -2.04,21.03 -4.77,38.59 -8.19,52.67 11.23,-0.14 23.46,-0.96 36.68,-2.45 13.22,-1.5 26.04,-2.15 38.46,-1.95 12.42,0.19 24.06,2.08 34.9,5.66 10.84,3.58 20.01,10.11 27.51,19.59 7.5,9.48 12.8,22.79 15.9,39.93 3.1,17.14 3.06,39.07 -0.11,65.8 -3.68,29.87 -7.06,56.95 -10.15,81.24 -3.09,24.29 -5.58,46.64 -7.47,67.03 -1.89,20.39 -3.3,39.61 -4.24,57.67 -0.94,18.06 -0.89,35.43 0.15,52.13 0.1,9.05 0.74,18.73 1.93,29.05 1.19,10.31 3.05,19.72 5.57,28.22 2.52,8.5 5.56,15.37 9.13,20.6 3.57,5.24 7.78,7.3 12.63,6.2 10.78,-2.45 21.19,-11.03 31.24,-25.71 10.05,-14.69 19.55,-32.88 28.5,-54.58 8.95,-21.7 17.17,-45.65 24.67,-71.85 7.5,-26.21 14.25,-51.94 20.24,-77.19 6,-25.26 10.96,-48.62 14.89,-70.08 3.93,-21.46 6.58,-38.7 7.95,-51.71 0.9,-6.86 3.35,-12.26 7.36,-16.19 4.01,-3.94 8.22,-6.11 12.65,-6.51 4.42,-0.4 8.22,1 11.39,4.21 3.17,3.21 4.09,8.59 2.76,16.15 -4.28,23.96 -8.93,51.03 -13.96,81.21 -5.02,30.18 -11.2,60.92 -18.54,92.23 -7.34,31.31 -16.05,62.03 -26.16,92.15 -10.1,30.12 -22.16,56.76 -36.17,79.91 -14.01,23.15 -30.31,41.83 -48.91,56.05 -18.59,14.21 -39.77,21 -63.55,20.37 -18.69,-0.58 -33.53,-8.7 -44.5,-24.34 -10.97,-15.65 -19.15,-35.71 -24.54,-60.19 -5.39,-24.48 -8.79,-51.68 -10.19,-81.6 -1.4,-29.92 -1.61,-59.52 -0.62,-88.77 0.98,-29.26 2.53,-56.38 4.64,-81.35 2.11,-24.97 3.68,-44.84 4.71,-59.59 1.1,-8.72 1.68,-20.04 1.74,-33.97 0.07,-13.93 -1.79,-26.21 -5.58,-36.84 -3.79,-10.63 -10.1,-17.66 -18.94,-21.09 -8.84,-3.43 -21.62,0.99 -38.34,13.27 -3.5,16.52 -7.01,34.41 -10.53,53.66 -3.52,19.25 -6.92,37.72 -10.18,55.39 -1.77,9.6 -3.51,18.56 -5.2,26.89 2.32,2.57 3.04,5.63 2.18,9.18 -3.92,17.22 -8.31,38.49 -13.17,63.79 -4.86,25.3 -11.22,52.3 -19.07,81.01 -7.85,28.7 -17.18,57.74 -27.99,87.12 -10.81,29.38 -23.89,56.55 -39.23,81.52 -15.34,24.97 -33.18,46.57 -53.51,64.81 -20.33,18.24 -43.7,30.36 -70.1,36.38 -22.09,5.03 -42.13,4.76 -60.13,-0.82 -17.99,-5.58 -33.84,-15.28 -47.55,-29.09 -13.7,-13.81 -25.04,-30.59 -34,-50.32 -4.21,-9.27 -7.89,-19 -11.04,-29.18 -2.19,7.29 -4.48,14.59 -6.87,21.91 -10.36,31.69 -23.52,60.55 -39.5,86.57 -15.98,26.02 -35.22,47.64 -57.72,64.86 -22.5,17.22 -49.3,26.95 -80.38,29.19 -22.24,1.44 -41.98,-1.63 -59.24,-9.19 -17.26,-7.56 -32.02,-18.87 -44.28,-33.92 -12.26,-15.05 -22.39,-32.86 -30.39,-53.41 -4.4,-11.31 -8.14,-23.15 -11.21,-35.5 -5.59,20.91 -11.84,41.37 -18.74,61.37 -7.7,22.32 -16.46,42.16 -26.26,59.51 -9.81,17.36 -21.11,31.42 -33.9,42.2 -12.79,10.78 -27.29,16.5 -43.49,17.16 -15,1 -27.75,-1.54 -38.24,-7.62 -10.49,-6.08 -19.14,-14.24 -25.95,-24.49 -6.8,-10.25 -11.82,-22.11 -15.04,-35.59 -3.22,-13.48 -5.13,-27.41 -5.71,-41.8 -1.17,-28.77 -1.89,-58.09 -2.16,-87.97 -0.26,-29.88 -0.2,-58.78 0.21,-86.7 0.4,-27.92 0.99,-54.21 1.75,-78.88 0.76,-24.67 1.53,-46.47 2.3,-65.4 1.26,-33.56 -1.77,-49.65 -9.11,-48.28 -7.33,1.37 -20.44,18.41 -39.31,51.14 -7.84,14.49 -15.36,30.57 -22.58,48.24 -7.21,17.67 -13.93,35.68 -20.16,54.04 -6.23,18.36 -12.14,36.19 -17.74,53.49 -5.59,17.3 -10.7,32.83 -15.3,46.58l-7.2 23.41 -0.17 -0.87 -7.55 21.68c-3.77,20.82 -6.28,43.77 -7.53,68.85 -1.25,25.08 -1.1,48.64 0.43,70.67 0.72,6.49 2.09,13.44 4.11,20.84 1.09,11.25 2.78,20.54 5.08,27.88 2.29,7.34 4.22,13.56 5.79,18.64 1.53,2.07 2.58,3.8 3.13,5.18 0.55,1.39 0.95,2.66 1.17,3.82 1.91,6.82 -1.98,11.34 -11.68,13.55 -14.55,3.31 -26.55,2.42 -36,-2.69 -9.45,-5.11 -16.99,-12.61 -22.6,-22.53 -5.61,-9.91 -10.06,-21.75 -13.34,-35.52 -3.28,-13.77 -6.02,-27.66 -8.22,-41.68 -1.98,-13.75 -3.5,-28.83 -4.57,-45.23 -2.23,6.4 -4.52,12.82 -6.89,19.26 -10.81,29.38 -23.89,56.55 -39.23,81.52 -15.34,24.97 -33.18,46.57 -53.51,64.81 -20.33,18.24 -43.7,30.36 -70.1,36.38 -22.09,5.03 -42.14,4.76 -60.13,-0.82 -17.99,-5.58 -33.84,-15.28 -47.55,-29.09 -13.71,-13.82 -25.04,-30.59 -34,-50.32 -4.91,-10.8 -9.09,-22.22 -12.55,-34.26 -51.31,130.49 -148.51,219.74 -311.87,170.37 8.73,131.98 6.98,255.08 46.89,383.46 9.08,29.49 4.29,32.85 6.6,32.6 -12.22,27.44 -45.45,37.79 -64.97,16.84 -12.97,-14.54 -23.53,-32.76 -29.8,-51.15 -8.06,-26.59 -14.99,-58.13 -20.78,-94.62 -5.79,-36.48 -10.58,-75.77 -14.39,-117.85 -3.8,-42.08 -6.75,-85.57 -8.85,-130.45 -5.52,-117.98 -24.98,-240.29 -31.26,-363.44 -1.57,-30.79 -3.46,-56.07 -5.67,-75.83 -2.21,-19.76 0.7,-31.7 -2.97,-35.66 -4.2,-4.53 -8.76,-8.74 -13.5,-12.8 -4.74,-4.06 -7.92,-8.03 -9.53,-11.89 -1.61,-3.87 -0.7,-7.85 2.71,-11.96 3.41,-4.11 11.23,-8.08 23.37,-12.13 68.06,-22.68 90.89,23.07 88.77,86.09 -0.57,17 -0.02,34.17 0.39,51.17 0.44,18.56 0.41,37.14 0.43,55.7zm2148.94 -822.91c-2.62,-6.61 -1.64,-11.84 2.95,-15.69 4.58,-3.85 11.01,-6.02 19.27,-6.51 8.26,-0.49 17.37,1.06 27.33,4.67 9.96,3.61 18.77,9.69 26.44,18.24 6.43,7.21 9.93,16.53 10.48,27.96 0.56,11.43 -0.65,23.15 -3.61,35.16 -2.97,12.01 -7.25,23.74 -12.84,35.17 -5.59,11.43 -11.08,20.97 -16.47,28.61 -5.39,7.64 -10.23,12.46 -14.53,14.48 -4.3,2.02 -6.94,-0.4 -7.91,-7.24 -0.72,-6.31 -2.28,-14.68 -4.69,-25.09 -2.41,-10.41 -5.04,-21.88 -7.89,-34.4 -2.85,-12.52 -5.94,-25.25 -9.28,-38.17 -3.34,-12.92 -6.42,-25.32 -9.24,-37.19zm422.43 405.82c-0.1,30.87 -7.77,58.32 -23.02,82.36 -15.24,24.04 -33.72,43.82 -55.43,59.35 -21.71,15.53 -44.74,26.52 -69.08,32.97 -24.35,6.45 -45.67,7.53 -63.97,3.23 -14.07,-2.84 -24.22,-10.06 -30.45,-21.64 -6.23,-11.59 -8.37,-25.31 -6.44,-41.18 1.94,-15.86 8.26,-33.03 18.98,-51.5 10.71,-18.47 25.92,-36.3 45.61,-53.48 13.91,-12.24 27.73,-23.55 41.45,-33.94 13.71,-10.38 27.02,-18.55 39.92,-24.52 -2.91,-9.02 -6.91,-17.18 -12.01,-24.48 -5.1,-7.31 -10.69,-14.2 -16.75,-20.68 -6.07,-6.48 -12.4,-12.9 -19,-19.26 -6.6,-6.36 -13.19,-13.33 -19.75,-20.91 -27.48,-33.66 -48.22,-63.87 -62.22,-90.62 -14.01,-26.75 -22.83,-53.63 -26.46,-80.62 -2.92,-20.5 -1.96,-39.17 2.88,-56 4.84,-16.83 11.65,-31.54 20.43,-44.12 8.78,-12.58 19.06,-23.24 30.85,-31.98 11.79,-8.73 23.23,-14.97 34.31,-18.7 33.26,-11.2 52.45,0.46 57.57,34.98 1.66,14.14 1.47,30.97 -0.59,50.49 -2.06,19.52 -6.43,45.17 -13.11,76.93l-9.61 41.2c19.04,22.28 37.71,46.3 56.03,72.07 18.32,25.77 34.99,49.64 50.03,71.63 10.48,-9.65 20.85,-19.87 31.11,-30.67 10.26,-10.8 20.09,-23.02 29.51,-36.66 9.41,-13.64 18.19,-29.09 26.32,-46.37 8.13,-17.28 15.11,-36.86 20.92,-58.75 1.66,-5.82 3.98,-9.07 6.94,-9.75 2.96,-0.67 5.84,0.33 8.62,3.03 2.78,2.69 5.12,6.7 7.02,12.01 1.89,5.32 2.33,11.11 1.32,17.39 -2.73,17.56 -8.22,34.69 -16.46,51.38 -8.25,16.7 -17.88,32.8 -28.89,48.32 -11.01,15.51 -22.74,30.28 -35.18,44.3 -12.44,14.02 -24.53,26.91 -36.29,38.66 6.28,11.88 10.42,24.99 12.41,39.36 1.99,14.37 2.82,26.42 2.49,36.18zm-193.38 145.65c9.34,4.53 19.78,3.21 31.31,-3.95 11.53,-7.16 22.2,-18.06 31.98,-32.69 9.78,-14.63 17.7,-31.55 23.76,-50.77 6.06,-19.23 8.44,-39.27 7.13,-60.15l4.68 -1.97c-7.43,2.3 -16.37,6.9 -26.83,13.82 -10.46,6.92 -21.09,15.08 -31.9,24.5 -10.81,9.42 -21.05,19.61 -30.7,30.58 -9.66,10.97 -17,21.56 -22.02,31.78 -5.02,10.22 -6.81,19.7 -5.37,28.44 1.44,8.74 7.43,15.55 17.96,20.41zm39.61 -432.72c1.94,-10.12 3.88,-21 5.81,-32.63 1.93,-11.63 3.57,-22.59 4.92,-32.87 1.35,-10.29 2.22,-19.41 2.62,-27.36 0.4,-7.95 0.2,-13.96 -0.6,-18.01 -3.25,-10.75 -6.71,-14.05 -10.4,-9.88 -3.68,4.17 -7.19,12.07 -10.52,23.72 -3.33,11.65 -5.81,24.76 -7.44,39.35 -1.63,14.59 -1.74,26.86 -0.33,36.82 1.43,12.98 5.45,24.77 12.04,35.36l3.9 -14.5zm-658.62 72.53c0.49,5.33 2.39,9.28 5.72,11.85 3.32,2.57 7.09,3.83 11.3,3.78 4.21,-0.05 8.57,-1.5 13.08,-4.34 4.51,-2.84 8.46,-7.07 11.86,-12.68 1.41,-10 3.18,-20.99 5.32,-32.97 2.14,-11.98 3.96,-23.43 5.47,-34.36 1.5,-10.93 2.1,-20.74 1.79,-29.44 -0.31,-8.7 -2.21,-14.77 -5.7,-18.2 -6.22,-5.84 -12.54,-5.76 -18.96,0.23 -6.42,6 -11.91,15.26 -16.47,27.79 -4.57,12.53 -8.22,26.82 -10.97,42.87 -2.75,16.05 -3.55,31.2 -2.43,45.46zm-153.9 140.29c-11.32,2.58 -21.59,11.87 -30.82,27.89 -9.23,16.01 -17.67,34.57 -25.33,55.67 -7.66,21.1 -14.18,43 -19.55,65.69 -5.37,22.7 -9.87,42.02 -13.48,57.96 13.9,-3.77 28.93,-9.61 45.11,-17.53 16.17,-7.92 30.95,-17.94 44.32,-30.05 13.38,-12.12 24.24,-26.24 32.6,-42.36 8.36,-16.12 12.01,-34.03 10.93,-53.75 -0.49,-5.33 -1.8,-11.99 -3.94,-19.97 -2.14,-7.98 -5.03,-15.49 -8.67,-22.52 -3.64,-7.04 -8.13,-12.67 -13.47,-16.89 -5.34,-4.23 -11.24,-5.61 -17.71,-4.14zm-1080.62 246.08c-11.32,2.58 -21.59,11.87 -30.81,27.89 -9.23,16.01 -17.67,34.57 -25.33,55.67 -7.66,21.1 -14.18,43 -19.55,65.69 -5.37,22.7 -9.87,42.02 -13.48,57.96 13.89,-3.77 28.93,-9.61 45.1,-17.53 16.17,-7.91 30.95,-17.93 44.32,-30.05 13.37,-12.12 24.24,-26.24 32.6,-42.36 8.36,-16.12 12.01,-34.03 10.93,-53.75 -0.49,-5.33 -1.8,-11.99 -3.94,-19.97 -2.14,-7.98 -5.03,-15.49 -8.67,-22.52 -3.64,-7.04 -8.13,-12.67 -13.47,-16.9 -5.34,-4.23 -11.24,-5.6 -17.71,-4.13zm-477.07 463.89c169.54,66.01 200.53,-223.53 146.09,-337.91 -33.13,-69.61 -142.06,-83.23 -146.09,337.91z"/>
   <g>
    <path class="fil1" d="M2321.48 6.29c-201.23,-18.86 -411.78,43.24 -731.03,232.23 -30.24,17.9 -113.91,75.98 -148.77,118.63 -51.35,62.83 -304.36,354.77 -353.89,383.41 -109.21,63.16 -142.19,-5.37 -270.5,0.59 -156.7,7.28 -158.57,-56.01 -234.09,-111.21 -29.05,-21.23 -27.44,-126.91 -179.43,-105.93 -80.95,11.18 -12.11,-66.42 -24.98,-85.52 -16.45,-24.43 -63.45,-53.76 27.62,-72.2 45.86,-9.28 142.96,-43.28 17.73,-37.52 -19.98,0.92 -62.74,10.06 -74.09,4.37 -21.48,-84.93 -44.24,-129.25 -195.43,-110.66 -70.06,8.62 -156.48,95.94 -124.02,174.66 42.82,103.81 15.48,37.44 68.02,112.03 35.57,50.51 44.08,13.78 -12.77,70.63 -44.88,44.88 -108.91,141.93 -77.52,215.05 11.17,26.02 63.43,144.11 87.64,149.88 12.47,40.85 188.24,139.95 172.93,211.07 -13.27,61.67 38.42,27.26 43.23,112.39 0.3,5.37 35.49,21.11 47.61,55.97 19.41,55.82 23.44,95.01 23.44,158.69 237.6,0 436.4,-6.86 678.85,-6.86l-180.57 -201.14c-18.83,-8.52 -25.54,-124.59 27.43,-50.48 56.55,79.11 211.04,-51.08 69.71,-114.07 -7.24,-3.23 -49.02,1.23 -56.57,6.84l126.29 -233.14c187.81,-63.17 30.38,-109.61 135.44,-184.75 35.28,-25.23 45.04,-18.11 63.61,-57.34 5.75,-12.16 218.77,-264.41 239.8,-281.92 87.05,-72.48 28.41,-12.45 90.84,-43.43 2.22,-1.1 -1.98,-43.58 77.75,-77.72 120.56,-51.62 138.52,-93.18 330.09,-156.34 53,-17.47 115.73,-42.7 170.25,-45.16 57.69,-2.6 98.72,-3.62 165.35,-3.62 0,-9.14 0,-18.29 0,-27.43zm-1319.42 869.13c-84.19,0 -152.24,33.68 -229.22,8.39 -18.47,-6.07 -169.6,-52.45 -170.77,-65.53 -36.99,-1.19 39.15,72.62 43.04,82.29 7.21,17.91 34.76,32 48.29,75.33 11.02,35.29 31.62,61.68 36.57,104.2 3.47,29.84 3.49,41.99 65.24,51.62 15.94,2.49 33.93,3.14 50.28,3.14 31.5,-80.1 104.75,-162.74 154.29,-253.62 1.19,-2.19 1.71,-4.15 2.29,-5.81zm-52.85 256.85c29.04,2.51 22.05,21.19 1.43,13.85 -4.08,-1.45 -4.15,-14.09 -1.43,-13.85zm38 13.14c17.52,-3.96 28.69,27.36 -1.71,15.05 -4.54,-1.84 -0.66,-10.76 -0.67,-10.81 0.79,-0.76 2.4,-4.24 2.38,-4.24zm18 28.57c10.06,-1.25 15.55,28.37 -7.09,22.57 -6.18,-1.58 -7.92,-20.34 5.66,-21.66 0.7,-0.07 0.97,-0.85 1.43,-0.91zm-21.71 26.57c1.66,-0.44 29.05,10.61 12.04,15.8 -1.63,4.9 -31.39,11.7 -11.9,-13.09 0.46,-0.59 -0.2,-2.69 -0.14,-2.71zm-30 10.57c9.11,3.35 13.14,-2.09 13.14,15.72 -2.29,-0.39 -21.86,6.07 -23.38,-6.29 -0.94,-7.63 6.14,-10.94 10.24,-9.43zm-30.57 -12c12.8,-11.98 27.75,22.83 5.43,19.76 -8.14,-1.12 -13.04,-12.64 -5.43,-19.76zm-13.05 -12.86c-10.1,-1.16 -16.98,-26.56 6.67,-20.15 3.32,0.9 14.51,13.15 -5.64,19.69l-1.02 0.46zm13.34 -33.72c-1.84,-2.77 -6.8,-15.17 3.28,-15.95 10.06,-0.78 14.24,-3.97 15.62,13.71 1.01,12.87 -16.5,5.85 -18.91,2.24z"/>
    <path class="fil1" d="M2306.05 0l2.29 32c16.02,-0.5 20.33,18.55 35.07,24.16 60.69,85.85 192.29,275.52 287.21,319.48 193.98,89.83 378.01,-288.12 499.37,-211.73 367.47,231.3 517.08,228.16 781.91,348.93l3.98 2.87 11.43 -22.86c-407.99,-163.97 -607.38,-239.93 -701.31,-312.33 -265.89,-204.95 -389.16,285.01 -577.1,173.96 -178.67,-105.57 -294.84,-354.48 -342.86,-354.48z"/>
   </g>
  </g>
 </g>
</svg>
