<?xml version="1.0" encoding="UTF-8"?>
<!DOCTYPE svg PUBLIC "-//W3C//DTD SVG 1.1//EN" "http://www.w3.org/Graphics/SVG/1.1/DTD/svg11.dtd">
<!-- Creator: CorelDRAW 2020 (64-Bit) -->
<svg xmlns="http://www.w3.org/2000/svg" xml:space="preserve" width="3.08856in" height="0.230264in" version="1.1" style="shape-rendering:geometricPrecision; text-rendering:geometricPrecision; image-rendering:optimizeQuality; fill-rule:evenodd; clip-rule:evenodd"
viewBox="0 0 3102.68 231.32"
 xmlns:xlink="http://www.w3.org/1999/xlink"
 xmlns:xodm="http://www.corel.com/coreldraw/odm/2003">
 <defs>
  <style type="text/css">
   <![CDATA[
    .fil0 {fill:#FEFEFE}
    .fil1 {fill:#CD3238;fill-rule:nonzero}
   ]]>
  </style>
 </defs>
 <rect class="fil0" x="-213.72" y="-1674.63" width="3516" height="2009.14"/>
 <g id="Capa_x0020_1">
  <metadata id="CorelCorpID_0Corel-Layer"/>
  <g id="_1605950181440">
   <path class="fil1" d="M-0 24.95c1.21,-5.09 4.37,-9.23 9.43,-12.39 5.06,-3.15 11.84,-4.5 20.25,-3.96 4.18,-0.18 9.31,-0.45 15.38,-0.81 6.07,-0.32 12.34,-0.32 18.92,0 6.52,0.36 13.04,1.26 19.43,2.66 6.46,1.4 12.28,3.69 17.47,6.85 5.19,3.2 9.3,7.43 12.4,12.84 3.1,5.36 4.62,12.07 4.62,20.18 -0.51,9.14 -3.04,17.56 -7.6,25.18 -4.56,7.66 -10.44,13.69 -17.59,18.11 3.42,0.18 7.78,1.13 12.98,2.88 5.19,1.76 10.06,4.41 14.62,7.93 4.62,3.51 8.35,7.93 11.33,13.19 2.98,5.27 4.05,11.53 3.36,18.74 -1.27,8.96 -5.57,17.2 -12.98,24.68 -7.47,7.47 -16.52,13.87 -27.28,19.14 -10.76,5.27 -22.46,9.23 -35.06,11.85 -12.6,2.66 -24.81,3.69 -36.71,3.2 -8.16,-0.18 -13.67,-3.07 -16.52,-8.6 -2.78,-5.54 -4.31,-12.84 -4.43,-21.89 -0.13,-9.05 0.64,-19.51 2.21,-31.26 1.65,-11.8 2.91,-23.96 3.92,-36.44 0.95,-12.48 1.02,-25 0.19,-37.47 -0.89,-12.48 -3.67,-24.01 -8.36,-34.59zm43.74 92.38c0.25,2.66 -0.07,6.04 -0.89,10.18 -0.88,4.14 -1.7,8.42 -2.4,12.92 -0.76,4.46 -1.27,8.88 -1.52,13.2 -0.25,4.32 0.26,7.88 1.52,10.67 1.2,2.84 3.54,4.69 7.02,5.54 3.48,0.9 8.54,0.18 15.19,-2.12 10.12,-3.15 17.97,-7.12 23.54,-11.85 5.58,-4.78 9.24,-9.59 10.96,-14.55 1.7,-4.91 1.7,-9.68 0,-14.23 -1.71,-4.59 -5,-8.19 -9.82,-10.81 -4.81,-2.66 -10.95,-4.05 -18.35,-4.23 -7.41,-0.18 -15.82,1.57 -25.25,5.27zm-3.8 -80.49c0.25,6.17 0.57,11.44 0.95,15.86 0.38,4.37 0.7,8.47 1.08,12.25 0.38,3.78 0.76,7.48 1.14,11.08 0.38,3.6 0.88,7.52 1.65,11.75 6.2,0.86 12.09,-0.04 17.66,-2.79 5.51,-2.7 10.38,-6.22 14.43,-10.54 4.05,-4.32 7.08,-8.96 9.11,-14.01 1.96,-5 2.47,-9.37 1.46,-13.06 -0.51,-6.13 -3.42,-10.77 -8.74,-13.83 -5.31,-3.1 -10.88,-4.95 -16.83,-5.54 -5.95,-0.63 -11.26,-0.09 -15.95,1.57 -4.69,1.67 -6.71,4.1 -5.95,7.25zm95.14 -24.82c0.76,-3.33 2.98,-5.68 6.65,-6.98 3.73,-1.31 7.6,-1.76 11.71,-1.31 4.05,0.41 7.72,1.53 10.95,3.29 3.23,1.76 4.81,3.96 4.81,6.57l5.57 175.26c-1.27,2.97 -3.73,5 -7.41,6.08 -3.73,1.04 -7.66,1.4 -11.7,1.04 -4.05,-0.36 -7.66,-1.26 -10.76,-2.74 -3.11,-1.49 -4.5,-3.24 -4.25,-5.18l-5.57 -176.02zm40.65 104.45c-0.26,-9.5 0.69,-19.1 2.78,-28.78 2.09,-9.64 5.32,-18.96 9.68,-27.84 4.31,-8.87 9.75,-17.03 16.33,-24.41 6.52,-7.39 14.24,-13.51 22.97,-18.33 8.8,-4.82 18.67,-8.11 29.68,-9.78 11.01,-1.67 23.16,-1.17 36.52,1.44 4.24,0.9 7.21,2.61 8.92,5.18 1.71,2.52 2.41,5.14 2.02,7.8 -0.38,2.61 -1.58,5.04 -3.67,7.25 -2.15,2.21 -5.06,3.38 -8.73,3.56 -11.14,-1.76 -21.58,-1.58 -31.33,0.49 -9.81,2.12 -18.42,6.31 -25.95,12.57 -7.59,6.26 -13.55,14.5 -18.04,24.82 -4.43,10.27 -6.77,22.7 -7.02,37.34 0,5.81 0.51,12.25 1.46,19.37 1.01,7.16 2.85,13.87 5.57,20.22 2.72,6.31 6.33,11.71 10.76,16.22 4.49,4.5 10,6.98 16.71,7.52 6.9,0.18 12.85,-1.85 17.79,-6.08 4.94,-4.23 8.92,-9.23 11.9,-15.04 2.97,-5.81 4.87,-11.62 5.75,-17.43 0.82,-5.76 0.64,-10.27 -0.57,-13.42 -1.27,-1.26 -3.23,-1.8 -5.95,-1.71 -2.72,0.09 -5.76,0.32 -9.11,0.76 -3.29,0.45 -6.71,0.86 -10.19,1.22 -3.42,0.32 -6.64,0.13 -9.62,-0.54 -2.97,-0.72 -5.25,-2.16 -6.83,-4.37 -1.65,-2.21 -2.6,-4.46 -2.98,-6.85 -0.38,-2.38 -0.06,-4.59 0.89,-6.62 1.01,-2.02 2.47,-3.29 4.49,-3.83 9.62,-2.25 18.73,-3.74 27.4,-4.32 8.68,-0.63 16.33,-0.49 22.98,0.36 6.7,0.9 12.15,2.57 16.33,5.05 4.24,2.43 6.71,5.54 7.47,9.23 0.95,6.49 1.14,13.29 0.51,20.32 -0.57,7.02 -2.09,13.96 -4.43,20.72 -2.35,6.76 -5.45,13.15 -9.24,19.14 -3.86,5.99 -8.48,11.22 -13.93,15.72 -5.44,4.5 -11.64,8.06 -18.55,10.58 -6.96,2.57 -14.61,3.69 -22.97,3.33 -10.63,-0.9 -19.75,-3.06 -27.28,-6.49 -7.53,-3.42 -13.92,-7.61 -19.11,-12.43 -5.19,-4.86 -9.3,-10.18 -12.28,-15.99 -2.97,-5.81 -5.32,-11.58 -7.02,-17.3 -1.78,-5.72 -2.85,-11.08 -3.35,-16.12 -0.51,-5 -0.76,-9.19 -0.76,-12.52z"/>
   <path class="fil1" d="M401.46 160.35c-5.6,0.3 -10.86,-1.11 -15.73,-4.26 -4.87,-3.16 -9.32,-7.4 -13.32,-12.74 -4,-5.34 -7.38,-11.49 -10.11,-18.47 -2.72,-6.98 -4.76,-14.17 -6.08,-21.54 -1.36,-7.39 -1.78,-14.66 -1.36,-21.78 0.44,-7.12 1.88,-13.55 4.35,-19.25 2.42,-5.73 5.99,-10.37 10.69,-14 4.67,-3.59 10.69,-5.56 18,-5.89 5.28,-0.49 10.22,0.82 14.83,3.96 4.58,3.14 8.67,7.4 12.28,12.8 3.58,5.39 6.65,11.61 9.17,18.68 2.52,7.06 4.36,14.31 5.5,21.7 1.11,7.43 1.48,14.76 1.05,21.99 -0.42,7.23 -1.74,13.7 -3.96,19.37 -2.25,5.7 -5.43,10.3 -9.57,13.85 -4.14,3.52 -9.38,5.37 -15.73,5.58zm-14.64 -103.31c-3.16,0.55 -5.67,2.21 -7.57,4.99 -1.87,2.78 -3.22,6.23 -4.11,10.38 -0.87,4.16 -1.23,8.84 -1.12,14.04 0.15,5.18 0.67,10.41 1.53,15.69 0.86,5.25 2.09,10.43 3.66,15.46 1.61,5.06 3.46,9.52 5.5,13.38 2.05,3.88 4.33,6.99 6.84,9.35 2.48,2.36 5.09,3.5 7.78,3.48 3.32,-0.45 5.98,-2.08 7.99,-4.87 2.01,-2.8 3.43,-6.3 4.22,-10.51 0.8,-4.18 1.11,-8.91 0.95,-14.17 -0.16,-5.23 -0.7,-10.56 -1.65,-15.91 -0.95,-5.38 -2.27,-10.57 -3.95,-15.63 -1.65,-5.03 -3.57,-9.51 -5.7,-13.44 -2.12,-3.9 -4.4,-7.01 -6.81,-9.23 -2.42,-2.26 -4.93,-3.26 -7.57,-3.02zm57.24 93.79c-0.43,-8.47 -1.53,-17.5 -3.37,-27.13 -1.81,-9.6 -3.88,-18.96 -6.24,-28.09 -2.31,-9.1 -4.65,-17.62 -6.96,-25.6 -2.29,-7.99 -4.24,-14.58 -5.8,-19.74 0.85,-3.27 2.92,-6.14 6.18,-8.68 3.27,-2.51 7.19,-4.54 11.74,-6.04 4.58,-1.51 9.35,-2.45 14.38,-2.79 5.01,-0.36 9.83,0.05 14.4,1.15 4.54,1.13 8.48,3.04 11.76,5.72 3.28,2.69 5.34,6.34 6.21,10.93 0.74,4.06 0.32,8.33 -1.23,12.89 -1.56,4.51 -3.45,8.7 -5.67,12.53 -2.18,3.83 -4.31,7.05 -6.36,9.68 -2.04,2.63 -3.12,4.01 -3.24,4.14 11.77,13.76 21.1,24.21 27.95,31.28 6.86,7.08 11.79,11.54 14.74,13.38 1.64,1.01 2.31,2.44 1.99,4.27 -0.29,1.85 -1.2,3.49 -2.64,4.89 -1.47,1.43 -3.36,2.44 -5.64,2.98 -2.29,0.51 -4.54,0.04 -6.68,-1.45l-41.92 -46.95 -5.43 3.27c0.38,3.08 1.04,6.94 1.99,11.59 0.94,4.64 1.93,9.35 2.97,14.12 1.05,4.8 2.06,9.28 3.05,13.48 0.98,4.17 1.65,7.41 2.01,9.75 0.35,1.61 -0.37,2.8 -2.17,3.56 -1.84,0.74 -3.94,1.11 -6.38,1.13 -2.4,-0.02 -4.6,-0.41 -6.61,-1.14 -1.98,-0.74 -3.01,-1.78 -3.01,-3.12zm3.52 -65.73c2.66,-0.82 5.37,-2.22 8.2,-4.24 2.81,-1.99 5.35,-4.52 7.61,-7.49 2.25,-3.01 4.02,-6.41 5.3,-10.22 1.28,-3.82 1.67,-7.84 1.2,-12.02 -0.2,-1.55 -1.12,-2.8 -2.71,-3.77 -1.63,-0.96 -3.58,-1.58 -5.84,-1.91 -2.28,-0.29 -4.72,-0.3 -7.35,-0 -2.62,0.3 -5.02,0.83 -7.19,1.58 -2.16,0.72 -3.94,1.77 -5.36,3.08 -1.42,1.31 -2.01,2.8 -1.8,4.44l7.94 30.56z"/>
   <g>
    <path class="fil1" d="M600.54 155.2c0,-1.03 0.26,-2.25 0.76,-3.56 0.51,-1.31 1.4,-2.61 2.78,-3.83 1.33,-1.22 3.17,-2.21 5.38,-2.88 2.22,-0.72 4.94,-0.99 8.16,-0.81 5.19,0.72 8.67,2.66 10.57,5.81 1.83,3.15 3.48,6.35 5,9.64 1.46,3.24 3.61,5.94 6.26,8.02 2.72,2.12 7.72,2.48 14.87,1.08 8.42,-4.24 12.72,-9.37 12.97,-15.45 0.26,-6.08 -1.89,-12.83 -6.52,-20.31 -4.56,-7.47 -10.69,-15.4 -18.35,-23.74 -7.66,-8.38 -14.94,-16.84 -21.84,-25.49 -6.96,-8.6 -12.66,-17.25 -17.09,-25.85 -4.43,-8.61 -5.95,-16.8 -4.43,-24.55 0.76,-4.91 2.59,-9.28 5.58,-13.06 2.97,-3.78 6.77,-7.07 11.45,-9.91 8.17,-4.73 17.47,-6.98 27.85,-6.71 10.38,0.27 20.06,2.07 29.11,5.4 8.99,3.33 16.52,7.84 22.4,13.47 5.95,5.63 8.67,11.62 8.16,17.92 -1.2,4.6 -3.29,7.97 -6.13,10.18 -2.79,2.21 -5.89,3.42 -9.24,3.69 -3.36,0.27 -6.59,-0.23 -9.62,-1.44 -3.1,-1.26 -5.38,-3.1 -6.9,-5.54 -1.2,-2.66 -2.59,-5.45 -4.05,-8.33 -1.52,-2.88 -3.42,-5.41 -5.76,-7.52 -2.34,-2.12 -5.13,-3.6 -8.35,-4.5 -3.23,-0.85 -7.02,-0.68 -11.45,0.54 -4.5,1.4 -7.41,4.82 -8.74,10.18 -1.4,5.36 -0.32,11.13 3.16,17.25 1.46,2.48 4.24,6.13 8.29,10.99 4.12,4.82 8.8,10.36 14.12,16.62 5.32,6.22 10.82,13.06 16.52,20.45 5.7,7.38 10.82,14.86 15.38,22.43 4.56,7.57 8.23,15 10.95,22.3 2.72,7.29 3.67,13.96 2.97,19.91 -1.01,5.5 -3.54,9.95 -7.59,13.47 -4.12,3.52 -8.86,6.26 -14.31,8.2 -5.45,1.94 -11.14,3.2 -17.03,3.83 -5.95,0.63 -11.26,0.77 -15.95,0.41 -7.72,-0.18 -14.68,-1.53 -21.01,-3.97 -6.26,-2.48 -11.64,-5.58 -16.07,-9.37 -4.5,-3.78 -7.79,-7.88 -10.07,-12.3 -2.22,-4.37 -2.91,-8.61 -2.22,-12.66zm105.97 30.36c0.76,-6.53 1.33,-13.87 1.71,-22.03 0.38,-8.19 0.57,-16.84 0.57,-25.99 0,-9.19 -0.06,-18.6 -0.19,-28.24 -0.13,-9.69 -0.32,-19.23 -0.57,-28.65 -0.25,-9.41 -0.44,-18.56 -0.57,-27.48 -0.13,-8.87 -0.06,-16.98 0.19,-24.41 -3.48,-2.43 -5.19,-5.13 -5.19,-8.02 0,-2.93 1.14,-5.63 3.36,-8.2 2.21,-2.57 5.12,-4.77 8.67,-6.71 3.6,-1.94 7.41,-3.11 11.33,-3.42 5.19,0 9.11,0.81 11.83,2.48 2.72,1.67 4.87,3.74 6.33,6.22 1.46,2.48 2.66,5.09 3.54,7.93 0.82,2.79 2.02,5.36 3.48,7.66 5,6.3 11.14,13.11 18.55,20.31 7.47,7.21 14.36,13.78 20.82,19.78 1.71,0 3.79,-1.31 6.26,-3.96 2.47,-2.61 5.07,-5.95 7.78,-9.86 2.72,-3.97 5.51,-8.38 8.36,-13.2 2.84,-4.86 5.5,-9.41 7.97,-13.74 2.47,-4.32 4.62,-8.06 6.45,-11.22 1.9,-3.15 3.29,-5.18 4.31,-6.08 1.7,-2.12 4.3,-3.51 7.78,-4.23 3.48,-0.68 6.96,-0.68 10.57,0 3.61,0.72 6.96,2.12 10.19,4.23 3.23,2.12 5.44,4.86 6.71,8.2 -0.76,23.56 -0.44,44.23 0.89,62.02 1.39,17.75 3.1,33.29 5.19,46.57 2.09,13.29 4.31,24.6 6.52,33.92 2.22,9.32 3.8,17.34 4.81,24.01 1.2,2.84 -0.07,5.18 -3.92,7.12 -3.8,1.94 -8.29,3.24 -13.54,3.83 -5.19,0.63 -10.07,0.36 -14.62,-0.76 -4.56,-1.17 -6.83,-3.43 -6.83,-6.76 -0.76,-8.25 -1.52,-18.11 -2.28,-29.55 -0.7,-11.44 -1.52,-23.15 -2.41,-35.09 -0.82,-11.98 -1.77,-23.6 -2.72,-34.86 -1.01,-11.26 -2.15,-20.94 -3.35,-29.01 -1.01,1.22 -2.78,3.56 -5.38,6.98 -2.59,3.43 -5.38,7.07 -8.35,10.95 -2.98,3.87 -5.89,7.52 -8.74,10.94 -2.85,3.43 -4.75,5.77 -5.75,7.03 -0.95,1.94 -2.85,3.24 -5.51,3.92 -2.72,0.72 -5.7,0.95 -8.92,0.67 -3.23,-0.27 -6.33,-0.9 -9.31,-1.98 -2.91,-1.04 -4.93,-2.48 -5.89,-4.23 -1.27,-1.22 -3.42,-3.51 -6.52,-6.85 -3.1,-3.33 -6.46,-6.89 -10.19,-10.67 -3.73,-3.78 -7.4,-7.52 -11.14,-11.22 -3.67,-3.69 -7.02,-6.53 -10,-8.47 0,10.05 -0.06,20.13 -0.19,30.22 -0.13,10.13 -0.25,20.49 -0.38,31.17 -0.13,10.63 -0.19,21.62 -0.19,32.97 0,11.35 0.25,23.29 0.76,35.76 0.76,3.15 -0.57,5.45 -3.92,6.85 -3.29,1.44 -7.21,2.03 -11.64,1.85 -4.49,-0.18 -8.48,-0.99 -12.09,-2.48 -3.54,-1.53 -5.13,-3.6 -4.62,-6.22zm182.04 -1.85c1.27,-9.86 2.47,-20.31 3.61,-31.39 1.14,-11.08 1.71,-21.67 1.71,-31.67 -1.46,-5.31 -2.02,-9.41 -1.64,-12.43 0.31,-2.97 1.2,-5.68 2.59,-8.06 1.34,-2.35 2.79,-5 4.44,-7.88 1.58,-2.93 3.03,-6.94 4.24,-12.03 1.01,-4.6 1.77,-9.86 2.4,-15.86 0.63,-5.94 1.52,-11.98 2.59,-18.06 1.14,-6.08 2.78,-11.98 5,-17.79 2.21,-5.81 5.32,-10.81 9.3,-14.91 3.92,-4.14 9.11,-7.25 15.57,-9.28 6.39,-1.98 14.43,-2.29 24.05,-0.9 4.5,1.57 9.05,4.14 13.74,7.66 4.68,3.51 9.24,9.64 13.55,18.33 4.3,8.69 8.35,20.81 12.09,36.3 3.67,15.5 6.9,35.9 9.62,61.21l7.02 60.44c-2.21,2.97 -4.94,5.5 -8.16,7.52 -3.23,2.03 -6.52,3.2 -10,3.56 -3.48,0.36 -6.77,-0.18 -10,-1.58 -3.23,-1.4 -5.95,-4.05 -8.16,-7.93 0.51,-8.29 0.51,-17.88 0,-28.92 -0.51,-10.99 -1.46,-22.79 -2.97,-35.49 -0.51,-1.76 -3.29,-2.97 -8.35,-3.69 -5.06,-0.67 -10.7,-1.04 -16.84,-1.04 -6.2,0 -12.09,0.36 -17.66,1.04 -5.57,0.72 -9.05,1.67 -10.57,2.93l-1.84 59.9c-0.25,3.88 -2.28,7.07 -6.14,9.64 -3.86,2.52 -7.98,4.05 -12.47,4.46 -4.43,0.45 -8.42,-0.36 -11.9,-2.48 -3.42,-2.12 -5.07,-5.99 -4.81,-11.62zm62.98 -152.01c-2.22,0.54 -4.62,2.75 -7.22,6.71 -2.59,3.96 -4.93,8.92 -6.89,14.77 -1.96,5.9 -3.48,12.43 -4.62,19.55 -1.14,7.12 -1.46,14.1 -0.95,20.99 7.66,0.68 15.12,0.81 22.27,0.41 7.15,-0.45 13.36,-1.67 18.55,-3.56 -1.26,-6.17 -2.53,-12.48 -3.92,-18.87 -1.33,-6.44 -2.84,-12.39 -4.43,-17.84 -1.58,-5.45 -3.42,-10.13 -5.38,-14.1 -1.96,-3.96 -4.43,-6.67 -7.4,-8.06zm88.36 158.01c-3.73,0 -6.96,-0.36 -9.69,-1.08 -2.72,-0.68 -4.93,-2.03 -6.64,-3.96 -1.77,-1.94 -3.03,-4.55 -3.92,-7.8 -0.82,-3.29 -1.39,-7.47 -1.65,-12.61 -0.25,-7.03 -0.51,-15 -0.76,-23.87 -0.26,-8.92 -0.45,-18.15 -0.57,-27.75 -0.13,-9.55 -0.32,-19.23 -0.51,-29.01 -0.25,-9.77 -0.51,-19.14 -0.76,-28.1 -0.25,-8.97 -0.7,-17.3 -1.33,-24.96 -0.57,-7.66 -1.27,-14.1 -2.02,-19.37 0.25,-3.69 2.34,-6.26 6.33,-7.66 3.92,-1.44 8.22,-1.85 12.78,-1.35 4.56,0.54 8.67,2.02 12.21,4.5 3.61,2.48 5.13,5.63 4.62,9.5 0,11.44 -0.06,23.42 -0.12,36.03 -0.13,12.57 -0.07,25.18 0.12,37.88 0.25,12.66 0.83,25.18 1.71,37.56 0.82,12.43 2.28,24.19 4.24,35.27 5.7,0.86 10.76,1.4 15.19,1.58 4.5,0.18 8.99,0.18 13.54,0 4.62,-0.18 9.62,-0.49 15.06,-0.95 5.44,-0.41 11.83,-0.81 19.24,-1.17 4.24,0.9 6.96,2.84 8.16,5.81 1.27,3.02 1.33,6.13 0.19,9.28 -1.07,3.2 -3.03,6.08 -5.76,8.65 -2.72,2.57 -5.82,3.83 -9.24,3.83 -5.94,0.54 -14.62,0.99 -25.94,1.44 -11.39,0.45 -26.2,-0.13 -44.49,-1.71zm113.56 0c-3.73,0 -6.96,-0.36 -9.69,-1.08 -2.72,-0.68 -4.94,-2.03 -6.65,-3.96 -1.77,-1.94 -3.03,-4.55 -3.92,-7.8 -0.82,-3.29 -1.39,-7.47 -1.65,-12.61 -0.25,-7.03 -0.51,-15 -0.76,-23.87 -0.26,-8.92 -0.44,-18.15 -0.57,-27.75 -0.13,-9.55 -0.32,-19.23 -0.51,-29.01 -0.25,-9.77 -0.5,-19.14 -0.76,-28.1 -0.25,-8.97 -0.7,-17.3 -1.33,-24.96 -0.57,-7.66 -1.27,-14.1 -2.02,-19.37 0.25,-3.69 2.34,-6.26 6.33,-7.66 3.92,-1.44 8.23,-1.85 12.78,-1.35 4.56,0.54 8.67,2.02 12.21,4.5 3.61,2.48 5.13,5.63 4.62,9.5 0,11.44 -0.06,23.42 -0.12,36.03 -0.13,12.57 -0.07,25.18 0.12,37.88 0.26,12.66 0.83,25.18 1.71,37.56 0.82,12.43 2.28,24.19 4.24,35.27 5.7,0.86 10.76,1.4 15.19,1.58 4.5,0.18 8.99,0.18 13.54,0 4.62,-0.18 9.62,-0.49 15.07,-0.95 5.44,-0.41 11.83,-0.81 19.24,-1.17 4.24,0.9 6.96,2.84 8.16,5.81 1.27,3.02 1.33,6.13 0.19,9.28 -1.07,3.2 -3.03,6.08 -5.76,8.65 -2.72,2.57 -5.82,3.83 -9.24,3.83 -5.95,0.54 -14.62,0.99 -25.95,1.44 -11.39,0.45 -26.2,-0.13 -44.49,-1.71zm81.21 25.13c5.19,-3.88 9.05,-7.93 11.52,-12.25 2.47,-4.32 3.99,-8.51 4.62,-12.52 0.63,-4.05 0.57,-7.97 -0.19,-11.75 -0.7,-3.78 -1.84,-7.25 -3.29,-10.45 -0.76,-2.61 0.06,-4.82 2.59,-6.58 2.47,-1.76 5.44,-3.02 9.05,-3.69 3.61,-0.72 7.15,-0.77 10.76,-0.13 3.61,0.63 6.14,2.07 7.6,4.37 3.23,5.09 4.75,11.3 4.62,18.6 -0.12,7.3 -1.45,14.46 -4.05,21.48 -2.6,7.03 -6.27,13.25 -10.96,18.6 -4.68,5.36 -10,8.69 -15.95,9.91 -2.72,1.04 -5.44,1.17 -8.16,0.41 -2.72,-0.81 -5,-2.03 -6.83,-3.69 -1.84,-1.67 -3.03,-3.6 -3.54,-5.81 -0.51,-2.21 0.25,-4.37 2.21,-6.49zm169.95 -33.6c-0.51,-14.77 -2.28,-30.4 -5.38,-46.89 -3.1,-16.44 -6.64,-32.25 -10.57,-47.43 -3.99,-15.13 -7.91,-28.87 -11.9,-41.17 -3.92,-12.34 -6.9,-21.93 -8.86,-28.78 -0.76,-3.33 -0.25,-6.08 1.46,-8.2 1.76,-2.12 4.24,-3.6 7.4,-4.46 3.23,-0.9 6.77,-1.13 10.57,-0.68 3.86,0.45 7.53,1.53 10.95,3.29 2.21,3.02 4.43,7.25 6.52,12.79 2.09,5.54 4.5,13.6 7.21,24.18 2.72,10.54 5.95,24.05 9.62,40.54 3.73,16.44 8.42,37.11 14.12,61.98 3.48,-2.48 5.95,-5.86 7.41,-10.18 1.52,-4.32 2.66,-8.92 3.54,-13.87 0.89,-4.96 1.59,-9.86 2.22,-14.82 0.63,-4.95 1.7,-9.37 3.35,-13.24 1.59,-3.87 3.99,-6.94 7.22,-9.23 3.23,-2.3 7.66,-3.2 13.36,-2.66 4.68,0 8.67,1.44 11.83,4.37 3.23,2.93 6.14,6.53 8.74,10.86 2.6,4.32 5,9.1 7.21,14.41 2.28,5.27 4.56,10.41 6.9,15.31 2.34,4.96 4.94,9.42 7.78,13.38 2.85,3.96 6.21,6.8 10.19,8.56 5.19,-5.81 8.74,-13.61 10.57,-23.38 1.84,-9.77 2.97,-20.18 3.35,-31.21 0.38,-10.99 0.57,-22.07 0.57,-33.15 0,-11.08 0.76,-21.04 2.4,-29.82 1.58,-8.78 4.56,-15.81 8.86,-20.99 4.37,-5.18 10.95,-7.44 19.87,-6.71 5.19,1.04 8.8,2.88 10.95,5.54 2.09,2.61 3.1,5.68 3.1,9.1 0,3.42 -0.7,7.07 -2.21,10.94 -1.46,3.88 -3.36,7.66 -5.57,11.35 -1.21,2.66 -2.4,6.98 -3.48,13.06 -1.14,6.08 -2.28,13.15 -3.35,21.26 -1.14,8.11 -2.28,16.85 -3.55,26.3 -1.21,9.41 -2.72,18.83 -4.43,28.15 -1.71,9.32 -3.73,18.24 -5.95,26.66 -2.21,8.47 -4.87,15.67 -7.97,21.67 -3.1,5.99 -6.58,10.45 -10.57,13.47 -3.92,2.97 -8.54,3.69 -13.73,2.12 -5.38,-0.72 -9.87,-2.7 -13.29,-5.94 -3.48,-3.29 -6.39,-7.16 -8.73,-11.62 -2.35,-4.5 -4.37,-9.23 -5.95,-14.28 -1.58,-5 -3.29,-9.64 -5,-13.97 -1.71,-4.32 -3.73,-7.88 -5.95,-10.67 -2.22,-2.84 -4.94,-4.32 -8.16,-4.5 -3.42,2.97 -6.46,7.7 -9.05,14.1 -2.59,6.44 -5.76,13.02 -9.49,19.68 -3.67,6.66 -8.35,12.79 -14.05,18.33 -5.7,5.54 -13.23,8.87 -22.66,9.91 -4.68,-0.54 -8.48,-2.16 -11.26,-4.86 -2.85,-2.75 -4.94,-5.58 -6.14,-8.6zm189.31 -5.18c1.71,-13.87 2.59,-27.29 2.59,-40.22 0,-12.92 -0.38,-25.63 -1.14,-38.15 -0.76,-12.47 -1.65,-24.82 -2.78,-37.07 -1.08,-12.21 -1.77,-24.6 -2.02,-37.07 -0.76,-4.24 0.44,-7.57 3.54,-10.05 3.1,-2.43 7.41,-4.32 12.98,-5.68 5.57,-1.31 12.09,-2.16 19.68,-2.48 7.53,-0.36 15.5,-0.45 23.92,-0.27 8.35,0.18 16.89,0.4 25.57,0.76 8.67,0.36 16.89,0.63 24.81,0.81 3.74,0.54 6.46,1.71 8.16,3.56 1.78,1.85 2.41,3.92 2.09,6.21 -0.38,2.3 -1.96,4.46 -4.69,6.58 -2.72,2.12 -6.52,3.51 -11.45,4.24 -3.48,0.54 -8.67,0.68 -15.57,0.4 -6.96,-0.27 -14.11,-0.49 -21.52,-0.68 -7.4,-0.18 -14.43,0 -20.95,0.54 -6.59,0.54 -11.2,1.85 -13.93,3.96 -0.5,5.45 -0.76,10.77 -0.76,15.95 0,5.18 0.19,10.04 0.57,14.5 0.38,4.5 0.82,8.51 1.32,12.03 0.45,3.51 1.08,6.17 1.84,7.93 1.02,1.94 4.31,3.06 10,3.42 5.7,0.36 11.96,0.41 18.73,0.14 6.77,-0.27 13.36,-0.68 19.68,-1.17 6.26,-0.54 10.76,-0.72 13.47,-0.54 2.28,-0.18 3.99,0.32 5.19,1.44 1.27,1.13 2.15,2.61 2.59,4.37 0.51,1.76 0.76,3.65 0.76,5.68 0,2.02 -0.13,3.92 -0.38,5.68 -2.97,2.43 -6.58,3.96 -10.95,4.46 -4.3,0.54 -9.36,0.86 -15.19,0.95 -5.82,0.09 -12.28,0.31 -19.43,0.63 -7.22,0.36 -15,1.53 -23.42,3.47 0.76,1.21 1.14,3.65 1.14,7.25 0,3.61 -0.06,7.75 -0.19,12.39 -0.13,4.69 -0.26,9.5 -0.38,14.5 -0.12,5.05 0.07,9.59 0.57,13.74 0.51,4.14 1.39,7.47 2.59,10.04 1.27,2.52 3.23,3.65 5.94,3.29 7.41,0 13.86,-0.09 19.25,-0.27 5.44,-0.18 10.63,-0.41 15.63,-0.63 4.94,-0.27 10,-0.68 15.19,-1.21 5.19,-0.54 11.14,-1.31 17.79,-2.39 4.68,-0.85 8.03,-0.23 9.99,1.85 1.96,2.12 2.91,4.68 2.78,7.66 -0.12,3.02 -1.07,5.94 -2.97,8.83 -1.84,2.93 -4.24,4.73 -7.21,5.41 -0.76,0.18 -2.91,0.45 -6.46,0.81 -3.61,0.36 -7.91,0.63 -13.04,0.76 -5.06,0.18 -10.63,0.36 -16.65,0.54 -6.07,0.18 -12.09,0.32 -17.97,0.4 -5.95,0.09 -11.46,0.14 -16.52,0.14 -5.06,0 -9.24,-0.09 -12.41,-0.27 -5.25,1.04 -9.81,1.22 -13.73,0.54 -3.99,-0.72 -7.28,-1.89 -9.88,-3.56 -2.59,-1.67 -4.43,-3.78 -5.56,-6.35 -1.08,-2.52 -1.52,-5.14 -1.27,-7.8zm206.72 9.5c0.76,-6.53 1.33,-13.87 1.71,-22.03 0.38,-8.19 0.57,-16.84 0.57,-25.99 0,-9.19 -0.06,-18.6 -0.19,-28.24 -0.13,-9.69 -0.32,-19.23 -0.57,-28.65 -0.26,-9.41 -0.45,-18.56 -0.57,-27.48 -0.13,-8.87 -0.06,-16.98 0.19,-24.41 -3.48,-2.43 -5.19,-5.13 -5.19,-8.02 0,-2.93 1.14,-5.63 3.35,-8.2 2.22,-2.57 5.13,-4.77 8.67,-6.71 3.61,-1.94 7.41,-3.11 11.33,-3.42 5.19,0 9.12,0.81 11.83,2.48 2.72,1.67 4.87,3.74 6.33,6.22 1.46,2.48 2.66,5.09 3.55,7.93 0.82,2.79 2.02,5.36 3.48,7.66 5,6.3 11.15,13.11 18.55,20.31 7.47,7.21 14.36,13.78 20.82,19.78 1.71,0 3.8,-1.31 6.27,-3.96 2.47,-2.61 5.06,-5.95 7.78,-9.86 2.72,-3.97 5.51,-8.38 8.36,-13.2 2.84,-4.86 5.5,-9.41 7.97,-13.74 2.47,-4.32 4.62,-8.06 6.45,-11.22 1.9,-3.15 3.29,-5.18 4.31,-6.08 1.71,-2.12 4.3,-3.51 7.78,-4.23 3.49,-0.68 6.96,-0.68 10.57,0 3.61,0.72 6.96,2.12 10.19,4.23 3.23,2.12 5.44,4.86 6.71,8.2 -0.76,23.56 -0.44,44.23 0.88,62.02 1.4,17.75 3.1,33.29 5.19,46.57 2.09,13.29 4.31,24.6 6.52,33.92 2.22,9.32 3.8,17.34 4.81,24.01 1.2,2.84 -0.07,5.18 -3.92,7.12 -3.8,1.94 -8.29,3.24 -13.54,3.83 -5.19,0.63 -10.07,0.36 -14.62,-0.76 -4.56,-1.17 -6.84,-3.43 -6.84,-6.76 -0.76,-8.25 -1.51,-18.11 -2.28,-29.55 -0.69,-11.44 -1.51,-23.15 -2.4,-35.09 -0.82,-11.98 -1.77,-23.6 -2.72,-34.86 -1.01,-11.26 -2.15,-20.94 -3.35,-29.01 -1.01,1.22 -2.78,3.56 -5.38,6.98 -2.59,3.43 -5.38,7.07 -8.35,10.95 -2.98,3.87 -5.89,7.52 -8.74,10.94 -2.85,3.43 -4.75,5.77 -5.76,7.03 -0.95,1.94 -2.85,3.24 -5.51,3.92 -2.72,0.72 -5.7,0.95 -8.93,0.67 -3.23,-0.27 -6.33,-0.9 -9.3,-1.98 -2.91,-1.04 -4.94,-2.48 -5.89,-4.23 -1.27,-1.22 -3.42,-3.51 -6.52,-6.85 -3.1,-3.33 -6.46,-6.89 -10.19,-10.67 -3.73,-3.78 -7.4,-7.52 -11.14,-11.22 -3.67,-3.69 -7.02,-6.53 -10,-8.47 0,10.05 -0.06,20.13 -0.19,30.22 -0.13,10.13 -0.25,20.49 -0.38,31.17 -0.13,10.63 -0.19,21.62 -0.19,32.97 0,11.35 0.25,23.29 0.76,35.76 0.76,3.15 -0.57,5.45 -3.92,6.85 -3.29,1.44 -7.21,2.03 -11.64,1.85 -4.5,-0.18 -8.48,-0.99 -12.09,-2.48 -3.55,-1.53 -5.13,-3.6 -4.62,-6.22zm232.42 5.32c-9.87,-0.72 -18.48,-4.05 -25.76,-10.05 -7.28,-5.99 -13.42,-13.6 -18.36,-22.83 -4.94,-9.23 -8.48,-19.59 -10.56,-31.13 -2.09,-11.53 -2.91,-23.24 -2.4,-35.09 0.44,-11.89 2.46,-23.37 5.89,-34.46 3.48,-11.08 8.42,-20.85 14.87,-29.27 6.4,-8.47 14.36,-15 23.92,-19.68 9.49,-4.64 20.69,-6.44 33.54,-5.41 9.37,0.36 17.47,3.47 24.3,9.37 6.77,5.9 12.28,13.47 16.52,22.7 4.17,9.23 7.15,19.64 8.86,31.26 1.7,11.62 2.15,23.37 1.33,35.22 -0.89,11.89 -3.04,23.47 -6.52,34.73 -3.48,11.26 -8.22,21.12 -14.23,29.55 -6.08,8.47 -13.36,15 -21.9,19.68 -8.54,4.64 -18.35,6.44 -29.49,5.4zm13.74 -165.21c-5.7,0.18 -10.69,2.25 -15.06,6.22 -4.3,3.96 -7.97,9.1 -11.07,15.4 -3.1,6.35 -5.51,13.6 -7.28,21.8 -1.7,8.15 -2.78,16.48 -3.29,24.95 -0.51,8.42 -0.32,16.8 0.51,25.04 0.89,8.29 2.4,15.67 4.5,22.16 2.09,6.53 4.87,11.89 8.35,16.12 3.42,4.24 7.53,6.58 12.21,7.12 5.95,0 11.2,-1.98 15.76,-5.94 4.56,-3.96 8.35,-9.14 11.33,-15.58 2.98,-6.4 5.32,-13.74 7.03,-22.03 1.71,-8.24 2.78,-16.71 3.16,-25.32 0.38,-8.65 0.06,-17.07 -0.95,-25.36 -0.95,-8.24 -2.59,-15.67 -4.81,-22.3 -2.22,-6.57 -5,-11.94 -8.36,-15.94 -3.35,-4.05 -7.34,-6.17 -12.02,-6.35zm48.62 -12.7c1.96,-3.69 4.81,-6.35 8.54,-7.93 3.74,-1.57 7.53,-2.12 11.52,-1.57 3.92,0.54 7.72,2.02 11.26,4.5 3.61,2.43 6.26,5.68 7.98,9.73 1.01,2.84 2.47,7.75 4.49,14.78 1.96,7.07 4.24,15.04 6.83,24.05 2.6,8.97 5.32,18.33 8.17,28.11 2.84,9.73 5.5,18.87 7.97,27.29 2.47,8.47 4.68,15.67 6.64,21.67 2.03,5.94 3.48,9.55 4.5,10.81 1.71,-2.12 3.67,-6.17 5.89,-12.16 2.28,-5.94 4.56,-12.92 6.9,-20.85 2.35,-7.88 4.69,-16.26 7.02,-25.04 2.35,-8.83 4.43,-17.02 6.33,-24.68 1.84,-7.66 3.48,-14.19 5,-19.55 1.46,-5.36 2.47,-8.65 2.97,-9.86 0.95,-2.84 1.77,-6.17 2.4,-10.05 0.63,-3.87 1.59,-7.52 2.97,-10.94 1.33,-3.43 3.42,-6.22 6.27,-8.33 2.84,-2.12 7.02,-2.88 12.47,-2.39 6.39,0.36 11.71,1.71 15.95,3.97 4.18,2.29 6.39,5.9 6.65,10.85 -6.65,18.29 -12.53,34.23 -17.6,47.88 -5.06,13.65 -9.49,25.63 -13.16,36.03 -3.74,10.36 -6.96,19.5 -9.68,27.29 -2.72,7.84 -5.19,15.04 -7.41,21.67 -2.21,6.58 -4.37,12.93 -6.45,19.01 -2.16,6.04 -4.31,12.61 -6.52,19.64 -1.96,3.15 -4.49,5.45 -7.6,6.89 -3.1,1.4 -6.45,2.02 -9.99,1.94 -3.61,-0.05 -7.03,-0.68 -10.19,-1.85 -3.23,-1.13 -5.7,-2.66 -7.47,-4.6 -2.91,-4.77 -6.01,-11.22 -9.24,-19.41 -3.22,-8.16 -6.64,-17.34 -10.18,-27.57 -3.61,-10.22 -7.15,-21.08 -10.76,-32.61 -3.61,-11.53 -7.15,-22.97 -10.76,-34.41 -3.61,-11.44 -7.21,-22.52 -10.95,-33.29 -3.73,-10.72 -7.28,-20.4 -10.76,-29.01z"/>
    <path class="fil1" d="M2260.67 176.06c1.71,-13.87 2.6,-27.29 2.6,-40.22 0,-12.92 -0.38,-25.63 -1.14,-38.15 -0.76,-12.47 -1.64,-24.82 -2.78,-37.07 -1.08,-12.21 -1.78,-24.6 -2.02,-37.07 -0.76,-4.24 0.44,-7.57 3.54,-10.05 3.1,-2.43 7.41,-4.32 12.98,-5.68 5.57,-1.31 12.09,-2.16 19.68,-2.48 7.53,-0.36 15.5,-0.45 23.92,-0.27 8.35,0.18 16.9,0.4 25.57,0.76 8.67,0.36 16.9,0.63 24.81,0.81 3.74,0.54 6.46,1.71 8.17,3.56 1.77,1.85 2.4,3.92 2.09,6.21 -0.38,2.3 -1.96,4.46 -4.69,6.58 -2.72,2.12 -6.52,3.51 -11.45,4.24 -3.48,0.54 -8.67,0.68 -15.57,0.4 -6.96,-0.27 -14.11,-0.49 -21.52,-0.68 -7.4,-0.18 -14.43,0 -20.95,0.54 -6.59,0.54 -11.2,1.85 -13.93,3.96 -0.51,5.45 -0.76,10.77 -0.76,15.95 0,5.18 0.19,10.04 0.57,14.5 0.38,4.5 0.82,8.51 1.33,12.03 0.44,3.51 1.08,6.17 1.83,7.93 1.02,1.94 4.31,3.06 10.01,3.42 5.7,0.36 11.96,0.41 18.73,0.14 6.77,-0.27 13.36,-0.68 19.68,-1.17 6.26,-0.54 10.76,-0.72 13.48,-0.54 2.28,-0.18 3.99,0.32 5.19,1.44 1.27,1.13 2.15,2.61 2.59,4.37 0.51,1.76 0.76,3.65 0.76,5.68 0,2.02 -0.13,3.92 -0.38,5.68 -2.97,2.43 -6.58,3.96 -10.95,4.46 -4.3,0.54 -9.37,0.86 -15.19,0.95 -5.82,0.09 -12.28,0.31 -19.43,0.63 -7.22,0.36 -15,1.53 -23.42,3.47 0.76,1.21 1.14,3.65 1.14,7.25 0,3.61 -0.06,7.75 -0.19,12.39 -0.13,4.69 -0.25,9.5 -0.38,14.5 -0.12,5.05 0.07,9.59 0.57,13.74 0.51,4.14 1.4,7.47 2.59,10.04 1.27,2.52 3.23,3.65 5.95,3.29 7.41,0 13.86,-0.09 19.25,-0.27 5.44,-0.18 10.63,-0.41 15.63,-0.63 4.94,-0.27 10,-0.68 15.19,-1.21 5.19,-0.54 11.14,-1.31 17.79,-2.39 4.68,-0.85 8.04,-0.23 10,1.85 1.96,2.12 2.91,4.68 2.78,7.66 -0.12,3.02 -1.08,5.94 -2.97,8.83 -1.84,2.93 -4.24,4.73 -7.21,5.41 -0.76,0.18 -2.91,0.45 -6.46,0.81 -3.61,0.36 -7.91,0.63 -13.04,0.76 -5.06,0.18 -10.63,0.36 -16.65,0.54 -6.07,0.18 -12.09,0.32 -17.97,0.4 -5.95,0.09 -11.46,0.14 -16.52,0.14 -5.06,0 -9.23,-0.09 -12.4,-0.27 -5.25,1.04 -9.81,1.22 -13.73,0.54 -3.99,-0.72 -7.28,-1.89 -9.88,-3.56 -2.6,-1.67 -4.43,-3.78 -5.57,-6.35 -1.08,-2.52 -1.52,-5.14 -1.27,-7.8zm212.1 -167.6c0.76,-3.33 2.98,-5.68 6.65,-6.98 3.73,-1.31 7.6,-1.76 11.71,-1.31 4.05,0.41 7.72,1.53 10.95,3.29 3.23,1.76 4.81,3.96 4.81,6.57l5.57 175.26c-1.27,2.97 -3.73,5 -7.41,6.08 -3.73,1.04 -7.66,1.4 -11.7,1.04 -4.05,-0.36 -7.66,-1.26 -10.76,-2.74 -3.11,-1.49 -4.5,-3.24 -4.25,-5.18l-5.57 -176.02zm49.01 16.12c-3.23,0 -5.89,-0.9 -7.98,-2.66 -2.09,-1.76 -3.17,-3.6 -3.17,-5.54 0,-4.73 1.52,-8.06 4.5,-9.91 2.97,-1.85 6.58,-2.97 10.95,-3.43 4.3,-0.45 8.99,-0.45 14.05,0 5.06,0.45 9.69,0.49 13.93,0.13 9.62,0.72 19.49,1.22 29.68,1.58 10.12,0.36 19.75,0.54 28.92,0.54 9.11,0 17.53,-0.18 25.19,-0.54 7.66,-0.36 13.99,-0.77 18.92,-1.31 4.43,0.18 8.1,1.21 10.95,3.15 2.85,1.93 4.62,4.1 5.38,6.49 0.7,2.38 0.25,4.64 -1.52,6.85 -1.7,2.21 -4.94,3.83 -9.62,4.91 -7.15,0.86 -16.2,1.31 -27.09,1.31 -10.88,0 -21.71,0 -32.59,0 0.7,5.27 1.27,12.25 1.65,20.99 0.38,8.69 0.7,18.24 0.95,28.6 0.25,10.41 0.38,21.17 0.51,32.34 0.13,11.17 0.32,21.84 0.57,31.94 0.25,10.13 0.57,19.28 0.95,27.47 0.38,8.16 0.82,14.55 1.27,19.1 0,2.3 -1.71,4.28 -5.19,5.95 -3.42,1.67 -7.28,2.61 -11.45,2.79 -4.24,0.18 -8.23,-0.59 -12.09,-2.25 -3.79,-1.67 -6.2,-4.82 -7.21,-9.37 -0.25,-0.9 -0.44,-3.74 -0.57,-8.6 -0.13,-4.82 -0.25,-10.94 -0.38,-18.33 -0.12,-7.39 -0.25,-15.58 -0.38,-24.68 -0.06,-9.05 -0.19,-18.29 -0.32,-27.7 -0.13,-9.41 -0.25,-18.69 -0.38,-27.84 -0.13,-9.14 -0.26,-17.39 -0.38,-24.68 -0.12,-7.3 -0.25,-13.38 -0.38,-18.2 -0.13,-4.86 -0.32,-7.79 -0.57,-8.83l-47.08 -0.27zm229.75 159.13c1.27,-9.86 2.46,-20.31 3.6,-31.39 1.14,-11.08 1.71,-21.67 1.71,-31.67 -1.46,-5.31 -2.03,-9.41 -1.65,-12.43 0.31,-2.97 1.2,-5.68 2.59,-8.06 1.33,-2.35 2.79,-5 4.43,-7.88 1.58,-2.93 3.04,-6.94 4.24,-12.03 1.01,-4.6 1.77,-9.86 2.4,-15.86 0.63,-5.94 1.52,-11.98 2.59,-18.06 1.14,-6.08 2.78,-11.98 5,-17.79 2.22,-5.81 5.32,-10.81 9.31,-14.91 3.92,-4.14 9.11,-7.25 15.57,-9.28 6.39,-1.98 14.42,-2.29 24.05,-0.9 4.49,1.57 9.05,4.14 13.74,7.66 4.68,3.51 9.23,9.64 13.54,18.33 4.3,8.69 8.35,20.81 12.09,36.3 3.67,15.5 6.89,35.9 9.62,61.21l7.02 60.44c-2.21,2.97 -4.94,5.5 -8.16,7.52 -3.23,2.03 -6.52,3.2 -10,3.56 -3.48,0.36 -6.77,-0.18 -10,-1.58 -3.23,-1.4 -5.95,-4.05 -8.16,-7.93 0.5,-8.29 0.5,-17.88 0,-28.92 -0.51,-10.99 -1.46,-22.79 -2.97,-35.49 -0.51,-1.76 -3.29,-2.97 -8.35,-3.69 -5.06,-0.67 -10.7,-1.04 -16.84,-1.04 -6.2,0 -12.09,0.36 -17.66,1.04 -5.57,0.72 -9.05,1.67 -10.57,2.93l-1.84 59.9c-0.26,3.88 -2.28,7.07 -6.14,9.64 -3.86,2.52 -7.97,4.05 -12.46,4.46 -4.44,0.45 -8.42,-0.36 -11.9,-2.48 -3.42,-2.12 -5.07,-5.99 -4.81,-11.62zm62.97 -152.01c-2.21,0.54 -4.62,2.75 -7.22,6.71 -2.59,3.96 -4.94,8.92 -6.9,14.77 -1.96,5.9 -3.48,12.43 -4.62,19.55 -1.14,7.12 -1.46,14.1 -0.95,20.99 7.66,0.68 15.13,0.81 22.27,0.41 7.15,-0.45 13.36,-1.67 18.55,-3.56 -1.26,-6.17 -2.53,-12.48 -3.92,-18.87 -1.33,-6.44 -2.84,-12.39 -4.43,-17.84 -1.58,-5.45 -3.42,-10.13 -5.38,-14.1 -1.96,-3.96 -4.43,-6.67 -7.4,-8.06zm88.37 158.01c-3.73,0 -6.96,-0.36 -9.69,-1.08 -2.72,-0.68 -4.94,-2.03 -6.64,-3.96 -1.77,-1.94 -3.04,-4.55 -3.92,-7.8 -0.82,-3.29 -1.39,-7.47 -1.65,-12.61 -0.25,-7.03 -0.51,-15 -0.76,-23.87 -0.26,-8.92 -0.45,-18.15 -0.57,-27.75 -0.13,-9.55 -0.32,-19.23 -0.51,-29.01 -0.26,-9.77 -0.51,-19.14 -0.76,-28.1 -0.25,-8.97 -0.69,-17.3 -1.32,-24.96 -0.57,-7.66 -1.27,-14.1 -2.02,-19.37 0.25,-3.69 2.34,-6.26 6.33,-7.66 3.92,-1.44 8.22,-1.85 12.78,-1.35 4.56,0.54 8.67,2.02 12.22,4.5 3.61,2.48 5.13,5.63 4.62,9.5 0,11.44 -0.06,23.42 -0.12,36.03 -0.13,12.57 -0.07,25.18 0.12,37.88 0.25,12.66 0.83,25.18 1.71,37.56 0.82,12.43 2.28,24.19 4.24,35.27 5.7,0.86 10.76,1.4 15.19,1.58 4.49,0.18 8.99,0.18 13.54,0 4.62,-0.18 9.62,-0.49 15.06,-0.95 5.44,-0.41 11.83,-0.81 19.24,-1.17 4.24,0.9 6.96,2.84 8.16,5.81 1.27,3.02 1.33,6.13 0.19,9.28 -1.08,3.2 -3.04,6.08 -5.76,8.65 -2.72,2.57 -5.83,3.83 -9.24,3.83 -5.94,0.54 -14.62,0.99 -25.94,1.44 -11.39,0.45 -26.2,-0.13 -44.49,-1.71zm113.56 0c-3.74,0 -6.96,-0.36 -9.69,-1.08 -2.72,-0.68 -4.93,-2.03 -6.64,-3.96 -1.77,-1.94 -3.03,-4.55 -3.92,-7.8 -0.82,-3.29 -1.39,-7.47 -1.65,-12.61 -0.25,-7.03 -0.51,-15 -0.76,-23.87 -0.26,-8.92 -0.45,-18.15 -0.57,-27.75 -0.13,-9.55 -0.32,-19.23 -0.51,-29.01 -0.25,-9.77 -0.51,-19.14 -0.76,-28.1 -0.25,-8.97 -0.7,-17.3 -1.33,-24.96 -0.57,-7.66 -1.27,-14.1 -2.02,-19.37 0.25,-3.69 2.34,-6.26 6.33,-7.66 3.92,-1.44 8.22,-1.85 12.78,-1.35 4.56,0.54 8.67,2.02 12.21,4.5 3.61,2.48 5.13,5.63 4.62,9.5 0,11.44 -0.06,23.42 -0.12,36.03 -0.13,12.57 -0.07,25.18 0.12,37.88 0.25,12.66 0.83,25.18 1.71,37.56 0.82,12.43 2.28,24.19 4.24,35.27 5.7,0.86 10.76,1.4 15.19,1.58 4.5,0.18 8.99,0.18 13.54,0 4.62,-0.18 9.62,-0.49 15.06,-0.95 5.44,-0.41 11.83,-0.81 19.24,-1.17 4.24,0.9 6.96,2.84 8.16,5.81 1.27,3.02 1.33,6.13 0.19,9.28 -1.07,3.2 -3.03,6.08 -5.76,8.65 -2.72,2.57 -5.82,3.83 -9.24,3.83 -5.94,0.54 -14.62,0.99 -25.94,1.44 -11.39,0.45 -26.2,-0.13 -44.49,-1.71z"/>
   </g>
  </g>
 </g>
</svg>
