<?xml version="1.0" encoding="UTF-8"?>
<!DOCTYPE svg PUBLIC "-//W3C//DTD SVG 1.1//EN" "http://www.w3.org/Graphics/SVG/1.1/DTD/svg11.dtd">
<!-- Creator: CorelDRAW 2020 (64-Bit) -->
<svg xmlns="http://www.w3.org/2000/svg" xml:space="preserve" width="2.01283in" height="1.49964in" version="1.1" style="shape-rendering:geometricPrecision; text-rendering:geometricPrecision; image-rendering:optimizeQuality; fill-rule:evenodd; clip-rule:evenodd"
viewBox="0 0 1250.44 931.63"
 xmlns:xlink="http://www.w3.org/1999/xlink"
 xmlns:xodm="http://www.corel.com/coreldraw/odm/2003">
 <defs>
  <style type="text/css">
   <![CDATA[
    .fil0 {fill:#FEFEFE}
    .fil2 {fill:#3E4095}
    .fil1 {fill:#3E4095;fill-rule:nonzero}
   ]]>
  </style>
 </defs>
 <rect class="fil0" x="-80.74" y="-88.48" width="2174.32" height="1242.47"/>
 <g id="Capa_x0020_1">
  <metadata id="CorelCorpID_0Corel-Layer"/>
  <path class="fil1" d="M205.02 289.85c-7.65,-93.88 -125,-105.87 -116.81,-196.62 7.33,-81.32 42.45,-71.91 42.45,-71.91 38.63,11.93 27.82,46.05 10.6,62.36 -10.82,10.25 -26.16,9.03 -27.11,4.72 -0.2,-0.89 21.64,51.33 42.4,25.8 58.53,-71.99 -19.1,-111.82 -22.23,-112.53 0,0 -75.26,-21.29 -79.77,88.27 4.4,96.35 104.91,105.2 118.25,192.16 19.35,126.1 -161.98,173.73 -142.02,9.28 5.83,-48 52.13,-51.65 85.55,-20.32 2.51,2.35 15.13,-76.19 -43.85,-69.98 -69.27,7.29 -72.48,91.75 -72.48,91.75 2.57,170.96 208.58,176.98 205.02,-2.98zm41.16 -65.03c21.78,-36.28 23.03,-65.08 63.17,-57.32 7.82,1.51 10.33,6.04 14.08,9.6 8.34,7.93 10.8,83.75 -21.07,104.87 -7,4.64 18.58,-1.62 31,-25.76 0.46,-0.9 0.92,-1.77 1.37,-2.6 1.74,-8.24 4.26,-16.64 7.53,-25.18 4.24,-11.03 9.37,-21.09 15.4,-30.15 6.03,-9.06 12.75,-16.48 20.16,-22.26 7.41,-5.77 15.12,-8.67 23.14,-8.68 5.24,-0.01 9.41,1.22 12.51,3.68 3.09,2.46 5.36,5.67 6.79,9.62 1.43,3.95 2.16,8.39 2.18,13.33 0.02,4.94 -0.43,9.88 -1.33,14.82 -1.27,6.91 -3.9,12.93 -7.9,18.04 -4,5.11 -8.7,9.4 -14.12,12.86 -5.42,3.47 -11.31,6.23 -17.69,8.3 -6.38,2.07 -12.66,3.44 -18.85,4.11 -0.68,2.14 -1.36,4.86 -2.07,8.15 -0.71,3.29 -1.27,6.88 -1.68,10.74 -0.42,3.87 -0.64,7.78 -0.67,11.73 -0.03,3.95 0.41,7.53 1.33,10.74 0.91,3.21 2.3,5.96 4.17,8.26 1.86,2.3 4.49,3.7 7.87,4.18 5.07,0.81 10.15,-0.18 15.23,-2.99 5.09,-2.81 10.05,-6.68 14.89,-11.63 4.84,-4.95 9.47,-10.72 13.89,-17.31 4.42,-6.59 8.54,-13.31 12.35,-20.15 1.39,-2.5 2.74,-4.97 4.04,-7.43l0.37 -1.59c1.83,-7.74 3.73,-15.35 5.71,-22.85 1.98,-7.49 3.7,-14.2 5.18,-20.13 1.47,-5.93 2.65,-10.83 3.52,-14.69 0.88,-3.87 1.17,-6.05 0.88,-6.54 -0.9,-1.15 -1.86,-2.42 -2.91,-3.82 -1.04,-1.4 -1.66,-2.71 -1.86,-3.95 -0.2,-1.24 0.3,-2.35 1.48,-3.34 1.18,-0.99 3.56,-1.65 7.11,-1.99 6.65,-0.67 11.53,-0.06 14.64,1.83 3.11,1.89 5.12,4.43 6.04,7.64 0.91,3.21 1.05,6.66 0.41,10.37 -0.64,3.7 -1.39,7.12 -2.25,10.25 -0.85,2.8 -1.57,5.27 -2.17,7.41 -0.6,2.14 -1.16,4.32 -1.68,6.54 -0.52,2.23 -1.09,4.53 -1.69,6.92 -0.6,2.39 -1.34,5.15 -2.19,8.28 1.3,-2.31 2.71,-4.57 4.23,-6.8 1.53,-2.23 3.01,-4.41 4.46,-6.55 3.84,-5.11 7.69,-10.38 11.54,-15.82 3.85,-5.44 7.88,-10.43 12.09,-14.96 4.21,-4.53 8.55,-8.24 13.03,-11.13 4.47,-2.89 9.18,-4.34 14.11,-4.35 6.94,-0.01 12.01,2.24 15.2,6.77 3.19,4.52 4.07,10.4 2.64,17.65 -0.35,1.48 -1.46,5.27 -3.32,11.36 -1.86,6.09 -4.06,13.26 -6.6,21.49 -2.54,8.24 -5.13,17.01 -7.78,26.31 -2.64,9.31 -4.77,17.87 -6.37,25.69 -1.6,7.82 -2.51,14.29 -2.73,19.39 -0.22,5.1 0.83,7.65 3.14,7.65 1.7,-0 3.94,-1.57 6.72,-4.71 2.78,-3.13 5.75,-7.17 8.89,-12.11 3.14,-4.94 6.38,-10.38 9.7,-16.31 3.14,-5.6 6.1,-11.06 8.89,-16.36 1.87,-9.05 4.6,-18.29 8.16,-27.74 4.32,-11.45 9.47,-21.91 15.43,-31.38 5.97,-9.48 12.62,-17.22 19.95,-23.24 7.34,-6.02 15.09,-9.04 23.27,-9.05 4.16,-0 8.46,0.97 12.87,2.94 4.42,1.97 7.96,5.17 10.61,9.61 2.65,4.44 4.04,10.2 4.16,17.28 0.11,7.08 -1.9,15.72 -6.03,25.93 -1.48,3.3 -3.04,5.52 -4.69,6.68 -1.65,1.15 -3.05,1.45 -4.19,0.87 -1.14,-0.57 -1.68,-1.97 -1.62,-4.19 0.06,-2.22 1.06,-5.06 3.01,-8.52 1.15,-2.47 2.23,-5.35 3.25,-8.65 1.02,-3.29 1.45,-6.5 1.3,-9.63 -0.14,-3.13 -0.95,-5.92 -2.43,-8.39 -1.47,-2.47 -4.05,-4.11 -7.73,-4.92 -3.83,-0.98 -7.79,0.18 -11.89,3.48 -4.1,3.3 -8.16,7.96 -12.18,13.97 -4.02,6.01 -7.8,12.97 -11.33,20.88 -3.53,7.91 -6.57,16.1 -9.12,24.58 -2.55,8.48 -4.51,16.8 -5.89,24.95 -1.38,8.15 -1.85,15.48 -1.41,21.98 0.44,6.5 1.88,11.73 4.31,15.67 2.44,3.95 6.12,5.92 11.06,5.91 7.25,-0.01 14.15,-2.66 20.69,-7.94 6.54,-5.28 12.79,-12.29 18.73,-21.02 4.92,-7.23 9.65,-15.41 14.2,-24.55 1.7,-10.28 4.61,-20.79 8.73,-31.54 4.23,-11.04 9.37,-21.09 15.4,-30.15 6.03,-9.06 12.75,-16.48 20.16,-22.26 7.41,-5.77 15.12,-8.67 23.14,-8.68 5.24,-0.01 9.41,1.22 12.51,3.68 3.1,2.47 5.36,5.67 6.79,9.62 1.44,3.95 2.16,8.39 2.18,13.33 0.02,4.94 -0.42,9.88 -1.33,14.82 -1.27,6.92 -3.9,12.93 -7.9,18.04 -3.99,5.11 -8.7,9.4 -14.12,12.86 -5.42,3.47 -11.31,6.23 -17.69,8.3 -6.38,2.07 -12.66,3.44 -18.85,4.11 -0.68,2.14 -1.37,4.86 -2.08,8.15 -0.7,3.29 -1.27,6.88 -1.68,10.74 -0.41,3.87 -0.64,7.78 -0.67,11.73 -0.03,3.95 0.41,7.53 1.33,10.74 0.91,3.21 2.3,5.96 4.17,8.26 1.86,2.3 4.49,3.7 7.87,4.19 5.07,0.81 10.15,-0.19 15.23,-2.99 5.09,-2.81 10.05,-6.68 14.89,-11.63 4.84,-4.95 9.47,-10.72 13.89,-17.31 4.42,-6.59 8.54,-13.31 12.35,-20.15 3.81,-6.84 7.27,-13.51 10.38,-20.02 1.28,-2.67 2.47,-5.2 3.59,-7.58 0.08,-0.38 0.2,-0.77 0.36,-1.19 1.33,-3.46 2.57,-6.67 3.73,-9.63 1.16,-2.97 2.37,-6.06 3.61,-9.27 1.24,-3.21 2.61,-6.71 4.1,-10.5 1.49,-3.79 3.16,-8.24 4.99,-13.34 -5.08,-0.48 -9.06,-1.42 -11.95,-2.82 -2.9,-1.39 -5.01,-3 -6.35,-4.8 -1.34,-1.81 -2.21,-3.7 -2.62,-5.67 -0.41,-1.97 -0.67,-3.86 -0.77,-5.68 -0.13,-0.99 0.08,-2.8 0.61,-5.43 0.53,-2.63 1.39,-5.68 2.56,-9.14 1.17,-3.46 2.66,-7.04 4.46,-10.75 1.8,-3.71 3.97,-7.13 6.53,-10.26 2.55,-3.13 5.4,-5.69 8.54,-7.67 3.14,-1.98 6.63,-2.98 10.49,-2.98 6.48,-0.01 10.82,1.87 13.03,5.65 2.21,3.78 3.16,8.31 2.87,13.57 -0.3,5.27 -1.37,10.7 -3.22,16.3 -1.85,5.6 -3.67,10.21 -5.47,13.83 3.06,0.66 6.44,1.18 10.13,1.59 3.69,0.4 7.22,1.02 10.59,1.83 3.37,0.82 6.42,2.05 9.15,3.69 2.73,1.64 4.83,3.98 6.29,7.03 1.46,3.04 2.08,6.99 1.87,11.85 -0.21,4.85 -1.57,10.83 -4.07,17.91 -2.84,7.91 -5.42,15.07 -7.76,21.49 -2.33,6.43 -4.39,12.35 -6.15,17.79 -1.77,5.44 -3.34,10.58 -4.7,15.44 -1.37,4.86 -2.42,9.59 -3.16,14.21 -0.53,2.47 -0.95,5.14 -1.26,8.02 -0.31,2.88 -0.38,5.56 -0.22,8.02 0.16,2.47 0.57,4.53 1.22,6.17 0.65,1.65 1.67,2.47 3.05,2.46 3.09,-0 6.45,-1.7 10.09,-5.08 3.64,-3.38 7.34,-7.75 11.12,-13.1 3.77,-5.36 7.48,-11.37 11.14,-18.05 3.65,-6.67 7.07,-13.26 10.26,-19.77 3.19,-6.51 5.97,-12.56 8.36,-18.16 2.39,-5.6 4.17,-10.13 5.34,-13.59 0.67,-1.81 1.67,-3.13 3,-3.96 1.33,-0.83 2.62,-1.16 3.84,-0.99 1.23,0.16 2.18,0.78 2.84,1.85 0.66,1.07 0.58,2.59 -0.24,4.57 -2.64,6.26 -5.57,13.34 -8.8,21.25 -3.22,7.91 -6.8,15.9 -10.72,23.97 -3.92,8.07 -8.19,15.9 -12.79,23.48 -4.61,7.58 -9.53,14.09 -14.76,19.53 -5.24,5.44 -10.83,9.53 -16.76,12.25 -5.93,2.72 -12.12,3.27 -18.55,1.64 -5.05,-1.31 -8.59,-4.43 -10.61,-9.36 -2.03,-4.93 -3.02,-10.9 -2.98,-17.9 0.03,-6.99 0.78,-14.61 2.24,-22.84 1.46,-8.23 3.22,-16.3 5.29,-24.21 2.07,-7.9 4.16,-15.19 6.27,-21.86 2.11,-6.67 3.76,-11.98 4.95,-15.93 0.83,-2.31 1.69,-5.35 2.56,-9.14 0.88,-3.79 1.13,-7.24 0.75,-10.37 -0.38,-3.13 -1.66,-5.43 -3.86,-6.91 -2.2,-1.48 -5.95,-1.06 -11.26,1.25 -1.97,4.28 -4.02,8.94 -6.17,13.96 -2.14,5.02 -4.2,9.84 -6.18,14.45 -1.07,2.5 -2.1,4.84 -3.07,7 0.47,0.84 0.48,1.72 0.03,2.64 -2.13,4.45 -4.63,9.96 -7.51,16.56 -2.88,6.59 -6.27,13.55 -10.17,20.88 -3.9,7.33 -8.23,14.66 -12.98,22 -4.75,7.33 -9.98,13.93 -15.69,19.78 -5.71,5.85 -11.9,10.64 -18.55,14.35 -6.66,3.72 -13.76,5.58 -21.32,5.59 -6.32,0.01 -11.76,-1.3 -16.32,-3.92 -4.56,-2.62 -8.27,-6.24 -11.16,-10.84 -2.88,-4.6 -4.94,-9.87 -6.16,-15.79 -0.58,-2.78 -0.98,-5.66 -1.21,-8.62 -1.04,1.85 -2.11,3.7 -3.21,5.54 -4.77,7.99 -10.13,15.04 -16.08,21.14 -5.95,6.1 -12.52,10.81 -19.7,14.11 -7.19,3.3 -15.08,4.31 -23.68,3 -6.14,-0.98 -11.33,-3.03 -15.56,-6.14 -4.23,-3.12 -7.56,-7.11 -9.97,-11.96 -2.41,-4.85 -4.07,-10.32 -4.99,-16.41 -0.5,-3.35 -0.79,-6.8 -0.87,-10.35 -2.81,5.35 -5.77,10.53 -8.87,15.56 -3.47,5.6 -7.07,10.46 -10.81,14.59 -3.74,4.12 -7.68,7.25 -11.83,9.4 -4.14,2.15 -8.44,2.82 -12.89,2 -4.15,-0.65 -7.46,-2.13 -9.94,-4.43 -2.48,-2.3 -4.33,-5.05 -5.56,-8.26 -1.22,-3.21 -1.86,-6.75 -1.91,-10.61 -0.05,-3.87 0.29,-7.78 1.02,-11.73 1.45,-7.9 3.06,-15.93 4.82,-24.08 1.77,-8.15 3.56,-16.02 5.39,-23.59 1.83,-7.57 3.6,-14.7 5.33,-21.36 1.72,-6.67 3.27,-12.56 4.65,-17.66 2.41,-9.06 2.57,-13.63 0.49,-13.71 -2.08,-0.08 -6.7,3.76 -13.85,11.51 -3.02,3.46 -6.06,7.38 -9.11,11.74 -3.05,4.37 -5.98,8.86 -8.81,13.47 -2.82,4.62 -5.53,9.1 -8.12,13.47 -2.59,4.37 -4.93,8.28 -7.03,11.74l-3.4 5.93 0 -0.24 -3.39 5.44c-2.31,5.44 -4.4,11.53 -6.28,18.28 -1.88,6.75 -3.29,13.17 -4.23,19.27 -0.2,1.81 -0.26,3.79 -0.16,5.92 -0.39,3.13 -0.5,5.76 -0.33,7.9 0.17,2.14 0.32,3.95 0.43,5.43 0.29,0.66 0.47,1.19 0.54,1.61 0.06,0.41 0.09,0.78 0.08,1.11 0.1,1.97 -1.24,2.96 -4.01,2.97 -4.17,0.01 -7.38,-0.97 -9.64,-2.95 -2.26,-1.97 -3.85,-4.48 -4.77,-7.52 -0.92,-3.04 -1.4,-6.54 -1.45,-10.49 -0.05,-3.95 0.06,-7.9 0.32,-11.85 0.31,-3.87 0.82,-8.06 1.54,-12.6 -1,1.61 -2.02,3.21 -3.06,4.82 -4.75,7.33 -9.98,13.93 -15.69,19.78 -5.71,5.86 -11.9,10.64 -18.55,14.35 -6.66,3.72 -13.76,5.58 -21.32,5.59 -6.33,0.01 -11.76,-1.3 -16.32,-3.92 -4.55,-2.63 -8.27,-6.24 -11.16,-10.84 -2.88,-4.61 -4.93,-9.87 -6.16,-15.79 -0.67,-3.24 -1.11,-6.61 -1.31,-10.1 -22,32.37 -53.95,50.69 -95.38,27.2 -5.74,36.47 -13.78,69.87 -10.82,107.28 0.66,8.59 -0.85,9.21 -0.21,9.28 -5.01,6.72 -14.7,7.49 -18.72,0.59 -2.64,-4.75 -4.39,-10.36 -4.97,-15.76 -0.56,-7.73 -0.5,-16.75 0.16,-27.04 0.67,-10.29 1.78,-21.28 3.33,-32.97 1.55,-11.69 3.42,-23.71 5.61,-36.06 5.75,-32.46 7.97,-66.95 13.84,-100.86 1.47,-8.48 2.5,-15.48 3.12,-20.99 0.62,-5.52 2.14,-8.59 1.38,-9.89 -0.86,-1.49 -1.85,-2.92 -2.89,-4.32 -1.04,-1.4 -1.66,-2.67 -1.86,-3.82 -0.2,-1.15 0.29,-2.18 1.47,-3.09 1.18,-0.91 3.55,-1.51 7.11,-1.87 19.93,-1.99 23.33,11.87 18.88,28.9 -1.2,4.59 -2.11,9.3 -3.04,13.96 -1.02,5.08 -2.17,10.14 -3.31,15.19zm626.85 -99.07c-0.31,-1.96 0.28,-3.33 1.77,-4.09 1.48,-0.77 3.37,-0.96 5.65,-0.59 2.28,0.38 4.67,1.36 7.15,2.95 2.49,1.59 4.52,3.79 6.08,6.59 1.31,2.36 1.69,5.11 1.14,8.25 -0.55,3.15 -1.6,6.27 -3.15,9.35 -1.55,3.09 -3.43,6.01 -5.66,8.79 -2.23,2.77 -4.31,5.03 -6.24,6.77 -1.93,1.75 -3.55,2.76 -4.85,3.05 -1.29,0.28 -1.86,-0.54 -1.71,-2.46 0.19,-1.76 0.28,-4.14 0.26,-7.12 -0.02,-2.98 -0.03,-6.27 -0.03,-9.85 -0,-3.59 -0.07,-7.24 -0.18,-10.96 -0.11,-3.72 -0.19,-7.29 -0.23,-10.69zm84.75 141.5c-1.92,8.4 -5.7,15.4 -11.33,21.01 -5.63,5.61 -11.88,9.86 -18.74,12.75 -6.87,2.89 -13.81,4.47 -20.83,4.73 -7.02,0.26 -12.9,-0.76 -17.61,-3.05 -3.66,-1.64 -5.98,-4.23 -6.96,-7.77 -0.98,-3.54 -0.72,-7.41 0.78,-11.61 1.5,-4.2 4.28,-8.48 8.33,-12.85 4.05,-4.37 9.29,-8.29 15.71,-11.76 4.54,-2.48 9,-4.71 13.37,-6.69 4.37,-1.98 8.5,-3.39 12.38,-4.22 -0.23,-2.63 -0.82,-5.1 -1.76,-7.4 -0.94,-2.3 -2.03,-4.52 -3.29,-6.66 -1.25,-2.14 -2.58,-4.28 -3.99,-6.41 -1.41,-2.14 -2.77,-4.44 -4.09,-6.9 -5.41,-10.85 -9.2,-20.36 -11.37,-28.5 -2.17,-8.14 -2.92,-16 -2.25,-23.57 0.47,-5.76 1.88,-10.79 4.23,-15.07 2.35,-4.28 5.11,-7.87 8.28,-10.75 3.16,-2.89 6.62,-5.16 10.37,-6.81 3.74,-1.65 7.25,-2.65 10.49,-2.98 9.74,-1.01 14.25,3.35 13.52,13.06 -0.42,3.95 -1.51,8.52 -3.27,13.71 -1.76,5.19 -4.53,11.9 -8.3,20.14l-5.15 10.62c3.81,7.24 7.42,14.92 10.82,23.07 3.4,8.14 6.47,15.67 9.21,22.57 3.45,-1.98 6.9,-4.13 10.36,-6.44 3.45,-2.31 6.88,-5.04 10.29,-8.17 3.4,-3.13 6.74,-6.8 10.02,-11 3.28,-4.2 6.38,-9.11 9.31,-14.71 0.81,-1.48 1.64,-2.23 2.49,-2.23 0.85,0 1.57,0.45 2.16,1.35 0.59,0.9 0.99,2.14 1.17,3.7 0.19,1.56 -0.05,3.17 -0.71,4.82 -1.82,4.61 -4.37,8.94 -7.64,12.98 -3.27,4.04 -6.88,7.83 -10.84,11.38 -3.95,3.55 -8.05,6.85 -12.3,9.9 -4.25,3.05 -8.33,5.82 -12.25,8.29 0.98,3.62 1.3,7.45 0.96,11.48 -0.34,4.03 -0.86,7.37 -1.55,10zm-61.6 27.76c2.26,1.81 5.19,2.09 8.77,0.85 3.58,-1.24 7.15,-3.55 10.71,-6.93 3.56,-3.38 6.76,-7.5 9.59,-12.36 2.83,-4.86 4.71,-10.17 5.64,-15.93l1.39 -0.25c-2.16,0.17 -4.88,0.87 -8.15,2.12 -3.27,1.24 -6.67,2.81 -10.19,4.71 -3.52,1.9 -6.94,4.05 -10.24,6.44 -3.3,2.39 -5.95,4.82 -7.95,7.3 -2,2.47 -3.07,4.95 -3.21,7.41 -0.15,2.47 1.07,4.69 3.63,6.66zm37.39 -115.37c1.15,-2.64 2.35,-5.48 3.59,-8.53 1.24,-3.05 2.36,-5.93 3.36,-8.65 1,-2.72 1.8,-5.15 2.4,-7.29 0.6,-2.14 0.91,-3.79 0.94,-4.94 -0.22,-3.13 -0.97,-4.24 -2.22,-3.33 -1.26,0.9 -2.7,2.84 -4.32,5.81 -1.62,2.96 -3.11,6.38 -4.45,10.26 -1.34,3.87 -2.13,7.21 -2.35,10 -0.41,3.62 -0.04,7.08 1.1,10.37l1.95 -3.71zm-169.68 -18.61c-0.2,1.48 0.08,2.68 0.83,3.58 0.75,0.9 1.69,1.48 2.84,1.72 1.15,0.24 2.42,0.12 3.83,-0.38 1.4,-0.49 2.73,-1.4 4.01,-2.72 1,-2.64 2.15,-5.52 3.48,-8.65 1.32,-3.13 2.52,-6.13 3.6,-9.02 1.08,-2.88 1.85,-5.52 2.3,-7.9 0.45,-2.39 0.31,-4.16 -0.43,-5.31 -1.33,-1.97 -3.06,-2.34 -5.18,-1.1 -2.12,1.24 -4.18,3.42 -6.2,6.55 -2.01,3.13 -3.89,6.8 -5.62,11 -1.73,4.2 -2.89,8.28 -3.46,12.23zm-50.53 28.73c-3.24,0.01 -6.6,1.91 -10.1,5.7 -3.5,3.79 -6.93,8.33 -10.32,13.6 -3.38,5.27 -6.5,10.83 -9.36,16.68 -2.86,5.85 -5.27,10.83 -7.23,14.95 4.01,-0.17 8.46,-0.84 13.36,-2 4.89,-1.16 9.53,-2.98 13.91,-5.46 4.39,-2.48 8.22,-5.65 11.48,-9.52 3.27,-3.88 5.36,-8.53 6.28,-13.96 0.2,-1.48 0.24,-3.38 0.15,-5.68 -0.09,-2.3 -0.42,-4.53 -0.97,-6.67 -0.56,-2.14 -1.43,-3.95 -2.63,-5.42 -1.2,-1.48 -2.71,-2.22 -4.57,-2.22zm-309.32 0.54c-3.24,0 -6.61,1.9 -10.1,5.7 -3.5,3.79 -6.94,8.33 -10.32,13.6 -3.38,5.27 -6.5,10.83 -9.36,16.68 -2.86,5.85 -5.27,10.83 -7.23,14.95 4.02,-0.17 8.47,-0.84 13.36,-2 4.89,-1.16 9.53,-2.98 13.91,-5.46 4.39,-2.48 8.21,-5.65 11.48,-9.53 3.27,-3.87 5.36,-8.53 6.28,-13.96 0.2,-1.48 0.25,-3.38 0.15,-5.68 -0.09,-2.3 -0.42,-4.52 -0.97,-6.66 -0.56,-2.14 -1.43,-3.95 -2.63,-5.43 -1.19,-1.48 -2.71,-2.22 -4.57,-2.21zm-158.41 96.95c42.1,28.4 68.34,-48.52 60.55,-83.01 -4.74,-20.98 -33.56,-31.39 -60.55,83.01z"/>
  <path class="fil2" d="M469.37 513.08c0.54,-2.97 3.16,-8.08 4.57,-10.8 1.26,-2.45 2.65,-4.96 4.25,-7.26 1.08,-1.56 3.04,-4.36 5.57,-3.71 2.7,0.69 2.26,4.18 2.04,6.04 -3.26,27.38 -12.08,59.59 -2.79,86.56 2.21,6.4 9.62,20.12 15.5,24.33 17.82,12.75 21.62,11.5 44.34,11.24 4.61,-0.05 11.85,-3.55 12.23,-8.09 0.22,-2.59 0.5,-8.04 -2.57,-9.64 -1.97,-1.03 -5.38,-0.66 -7.54,-0.37 -3.98,0.52 -7.85,1.35 -11.87,1.72 -10.68,0.97 -18.47,-1.84 -23.62,-10.53 -13.24,-22.34 -2.57,-65.53 0.61,-90.14 0.8,-6.2 2.3,-12.59 3.75,-18.7 1.97,-8.32 4.16,-16.62 6.45,-24.88 3.8,-13.72 7.82,-27.98 12.77,-41.41 1.71,-4.63 3.32,-9.32 4.86,-13.99 0.7,-2.11 3.5,-10.27 3.73,-12.98 -1.57,-1.14 -3.15,-2.77 -4.4,-4.04 -2.11,-2.14 -4.16,-4.33 -6.29,-6.46 -1.6,-1.6 -10.11,-10.19 -13.07,-8.39 -9.84,5.98 -35.84,69.17 -40.78,80.97 -8.14,19.44 -16,38.98 -24.25,58.38 -2.72,6.42 -5.49,12.92 -8.58,19.21 -0.89,1.81 -1.85,3.72 -2.96,5.43 -0.84,1.29 -2.13,3.06 -4.17,2.58 -2.31,-0.55 -2.11,-3.18 -1.98,-4.79 0.23,-2.84 0.81,-5.8 1.38,-8.61 2.07,-10.41 3.92,-20.92 5.85,-31.35 1.28,-6.89 2.56,-13.78 3.81,-20.68 0.61,-3.37 1.47,-7.12 1.84,-10.49 0.44,-3.88 1.33,-7.96 2.13,-11.8 1.18,-5.72 2.45,-11.43 3.72,-17.14 1.89,-8.48 3.89,-16.98 5.63,-25.49 4.16,-20.38 0.36,-15.05 -9.19,-31.87 -1.4,-1.8 -12.03,-9.06 -15.64,-10.15 -5.31,16.38 -11.56,31.92 -19.14,47.63 -3.91,8.1 -8.02,16.13 -12.03,24.19 -4.91,9.86 -9.66,19.77 -14.16,29.78 -6.19,13.74 -13.59,27.44 -21.11,40.66 -7.58,13.32 -15.81,27.19 -25.04,39.7 -10.88,14.75 -18.79,35.11 -43.8,29.61 -29.01,-6.38 -24.72,-58.05 -22.07,-76.95 1.77,-12.65 4.6,-25.47 8.61,-37.74 2.8,-8.58 6.87,-19.28 12.52,-26.77 9.91,-13.13 38.05,-52.42 60.48,-40.87 7.33,3.77 5.08,16.33 4.6,22.55 -0.37,4.86 -1.1,13.38 2.81,17.32 2.56,2.58 6.74,2.88 10.4,2.62 4.17,-0.3 7.8,-7.53 9.03,-10.4 0.94,-2.19 3.88,-10.79 2.96,-12.96 -0.29,-0.32 -0.49,-0.74 -0.53,-1.22 -0.02,-0.24 -0.03,-0.48 -0.04,-0.72 -0.05,-0.83 -0.09,-1.66 -0.14,-2.49 -0.15,-2.52 -0.35,-5.04 -0.66,-7.55 -0.29,-2.39 -0.83,-6.57 -2.02,-8.71 -8.35,-15.14 -18.2,-24.42 -38.76,-23.11 -21.65,1.38 -48.33,33.77 -59.1,48.65 -15.28,21.1 -24.39,51.66 -28.01,76.17 -4.32,29.21 -4.31,76.41 24.94,96.67 7.16,4.96 15.45,7.79 24.5,8.82 6.88,0.78 12.09,2.74 17.15,-2.61 5.09,-5.38 9.78,-11.56 14.2,-17.38 6.1,-8.05 11.99,-16.24 17.78,-24.46 6.91,-9.8 13.69,-19.68 20.34,-29.62 3.99,-5.97 8.18,-12.08 11.84,-18.2 3.23,-5.41 6.4,-10.85 9.46,-16.33 2.99,-5.35 6.46,-11.43 8.64,-17.05l0.66 -1.7 3.96 0.98 -0.47 1.75c-2.17,8.07 -4.07,16.05 -5.16,24.29 -0.96,7.33 -1.56,14.71 -2.46,22.06 -0.66,5.41 -1.78,10.9 -2.53,16.34 -1.22,8.93 -2.07,17.97 -2.1,26.96 -0.01,6.01 0.33,12.12 1.43,18.06 1.18,6.39 5.21,12.07 11.56,15.5 4.91,2.66 11.43,3.93 16.93,1.86 3.13,-1.18 5.41,-3.27 6.86,-5.93 0.82,-1.52 1.52,-3.32 2.19,-4.9 1.32,-3.14 2.59,-6.3 3.86,-9.45 3.51,-8.76 6.95,-17.55 10.36,-26.35 3.63,-9.35 7.24,-18.7 10.82,-28.06 1.68,-4.38 3.57,-8.92 5.08,-13.34zm443.69 141.36c-0.01,3.65 0.66,6.23 2.03,7.75 1.37,1.51 3.06,2.24 5.09,2.18 2.03,-0.06 4.16,-0.88 6.41,-2.45 2.25,-1.57 4.25,-3.62 5.99,-6.13 2.18,-3.4 4.26,-6.77 6.22,-10.1 1.97,-3.34 3.9,-7.3 5.8,-11.9 1.9,-4.59 3.8,-10.13 5.71,-16.62 1.91,-6.48 3.96,-14.63 6.18,-24.45 -4.36,4.03 -9.08,8.62 -14.16,13.78 -5.08,5.16 -9.77,10.5 -14.06,16.04 -4.29,5.54 -7.89,11.04 -10.8,16.52 -2.91,5.47 -4.38,10.6 -4.4,15.39zm45.82 -170.71c-3.61,0.63 -7.13,2.48 -10.54,5.56 -3.41,3.08 -6.57,6.98 -9.48,11.7 -2.91,4.72 -5.57,10.01 -7.98,15.86 -2.41,5.86 -4.42,11.77 -6.04,17.75 -1.62,5.98 -2.76,11.8 -3.43,17.47 -0.68,5.67 -0.8,10.7 -0.39,15.11 0.42,4.41 1.41,7.9 2.99,10.48 1.58,2.58 3.89,3.81 6.92,3.69 4.05,-0.12 7.92,-1.66 11.62,-4.62 3.7,-2.96 7.15,-6.73 10.35,-11.32 3.2,-4.6 6.15,-9.75 8.85,-15.48 2.7,-5.73 5.08,-11.55 7.12,-17.47 0.29,-0.63 0.63,-2.36 1,-5.19 0.37,-2.83 0.67,-6.11 0.9,-9.82 0.23,-3.72 0.29,-7.65 0.16,-11.81 -0.12,-4.15 -0.62,-7.93 -1.47,-11.33 -0.85,-3.4 -2.1,-6.14 -3.76,-8.22 -1.65,-2.08 -3.93,-2.87 -6.82,-2.37zm29.83 77.09c-0,0.88 0.14,2.04 0.42,3.49 0.28,1.45 0.9,2.65 1.83,3.59 0.94,0.94 2.2,1.39 3.79,1.33 1.59,-0.06 3.62,-1.16 6.09,-3.3 3.19,-2.64 6.17,-5.28 8.93,-7.93 2.76,-2.64 5.55,-5.85 8.39,-9.62 2.83,-3.77 5.89,-8.4 9.17,-13.87 3.27,-5.48 6.96,-12.37 11.04,-20.67 1.3,-0.38 2.24,-0.57 2.82,-0.56 1.15,0 2.06,0.32 2.71,0.95 0.65,0.63 1.19,1.33 1.62,2.08l-1.75 3.4c-1.02,2.39 -2.55,5.6 -4.6,9.63 -2.04,4.03 -4.48,8.37 -7.32,13.03 -2.84,4.66 -6.08,9.41 -9.71,14.25 -3.64,4.85 -7.56,9.22 -11.77,13.12 -4.21,3.9 -8.7,7.08 -13.49,9.52 -4.78,2.46 -9.7,3.68 -14.77,3.67 -2.8,13.22 -5.89,25.72 -9.26,37.48 -3.38,11.77 -7.39,22 -12.06,30.69 -4.66,8.69 -10.19,15.45 -16.57,20.29 -6.38,4.85 -13.91,6.95 -22.58,6.31 -5.78,-0.63 -10.44,-3.03 -13.96,-7.19 -3.52,-4.16 -5.13,-9.26 -4.82,-15.3 0.17,-7.18 2.05,-14.04 5.62,-20.59 3.57,-6.54 8.01,-12.83 13.31,-18.87 5.3,-6.04 11.07,-11.86 17.32,-17.46 6.24,-5.6 12.19,-10.98 17.85,-16.13 0.29,-0.76 0.69,-2.2 1.21,-4.34 0.51,-2.14 1.21,-5.1 2.1,-8.88 -1.46,2.52 -3.35,5.13 -5.67,7.84 -2.33,2.71 -4.94,5.16 -7.84,7.36 -2.9,2.2 -6.13,4.02 -9.68,5.47 -3.55,1.44 -7.2,2.16 -10.96,2.16 -4.19,-0 -7.95,-0.7 -11.27,-2.09 -3.32,-1.39 -6.17,-3.28 -8.55,-5.67 -2.37,-2.39 -4.24,-5.17 -5.6,-8.32 -1.36,-3.15 -2.25,-6.42 -2.67,-9.82 -0.17,-1.91 -0.27,-3.86 -0.29,-5.85 -2.55,4.16 -5.24,8.18 -8.09,12.08 -3.13,4.28 -6.4,7.99 -9.81,11.14 -3.41,3.15 -7.04,5.53 -10.87,7.17 -3.84,1.63 -7.86,2.14 -12.05,1.5 -3.9,-0.51 -7.04,-1.64 -9.42,-3.41 -2.38,-1.76 -4.18,-3.87 -5.4,-6.33 -1.22,-2.46 -1.89,-5.16 -2.03,-8.12 -0.13,-2.96 0.1,-5.95 0.69,-8.97 1.18,-6.04 2.51,-12.18 3.98,-18.41 1.47,-6.23 2.98,-12.24 4.52,-18.03 1.54,-5.79 3.05,-11.24 4.51,-16.33 1.47,-5.1 2.79,-9.6 3.96,-13.5 2.05,-6.92 2.1,-10.42 0.15,-10.48 -1.95,-0.06 -6.19,2.86 -12.73,8.77 -2.76,2.64 -5.52,5.63 -8.28,8.96 -2.76,3.33 -5.42,6.76 -7.96,10.28 -2.54,3.53 -4.98,6.96 -7.31,10.29 -2.33,3.34 -4.44,6.32 -6.33,8.97l-3.05 4.53 0 -0.19 -3.05 4.15c-2.04,4.15 -3.87,8.81 -5.48,13.97 -1.61,5.16 -2.79,10.07 -3.53,14.73 -0.15,1.39 -0.16,2.9 -0.02,4.53 -0.3,2.39 -0.34,4.41 -0.13,6.04 0.21,1.64 0.39,3.02 0.53,4.16 0.29,0.5 0.46,0.91 0.54,1.23 0.07,0.32 0.1,0.6 0.1,0.85 0.14,1.51 -1.09,2.27 -3.7,2.26 -3.9,-0 -6.94,-0.76 -9.1,-2.27 -2.16,-1.51 -3.71,-3.43 -4.64,-5.76 -0.93,-2.33 -1.46,-5 -1.59,-8.03 -0.13,-3.02 -0.12,-6.05 0.04,-9.07 0.09,-1.38 0.23,-2.82 0.4,-4.31 -0.56,0.9 -1.13,1.81 -1.7,2.71 -3.49,5.47 -7.2,10.26 -11.12,14.34 -3.92,4.09 -8.13,7.3 -12.62,9.62 -4.49,2.32 -9.27,3.3 -14.33,2.91 -5.2,-0.38 -9.28,-1.99 -12.23,-4.83 -2.95,-2.83 -5.07,-6.49 -6.35,-10.96 -1.28,-4.47 -1.8,-9.57 -1.56,-15.3 0.23,-5.55 0.87,-11.28 1.92,-17.18 -3.25,1.09 -6.76,1.68 -10.53,1.78 -4.85,0.12 -10.37,-0.64 -16.58,-2.28 -2.48,4.78 -5.72,10.23 -9.72,16.33 -4,6.1 -8.58,11.73 -13.73,16.89 -5.16,5.16 -10.81,9.28 -16.97,12.36 -6.16,3.08 -12.63,3.99 -19.42,2.72 -3.76,-0.76 -6.68,-2.08 -8.77,-3.97 -2.09,-1.89 -3.6,-4.35 -4.52,-7.37 -0.93,-3.02 -1.42,-6.58 -1.47,-10.67 -0.05,-4.09 0.15,-8.66 0.6,-13.69l0.1 -1.23c-1.47,1.65 -2.99,3.19 -4.56,4.63 -3.7,3.4 -7.73,6 -12.07,7.83 -4.35,1.82 -8.9,2.29 -13.67,1.4 -3.05,3.53 -6.25,6.86 -9.59,10 -3.34,3.15 -6.93,5.85 -10.77,8.12 -3.84,2.26 -7.9,3.93 -12.17,4.99 -4.27,1.07 -8.79,1.22 -13.55,0.46 -6.5,-1.01 -11.52,-3.56 -15.04,-7.66 -3.53,-4.09 -6,-8.82 -7.42,-14.17 -1.42,-5.36 -2.02,-10.96 -1.77,-16.81 0.24,-5.85 0.8,-11.05 1.69,-15.58 2.51,-12.84 6.17,-23.48 10.98,-31.91 4.81,-8.43 10.18,-15.1 16.13,-20.01 5.95,-4.91 12.14,-8.24 18.58,-9.99 6.44,-1.76 12.56,-2.45 18.34,-2.06 6.94,0.51 12.28,2.56 16.02,6.15 3.74,3.59 6.33,8.07 7.75,13.42 1.42,5.35 1.91,11.27 1.45,17.75 -0.46,6.49 -1.46,12.84 -3.01,19.07 -1.55,6.23 -3.41,12.06 -5.61,17.47 -2.19,5.41 -4.23,9.69 -6.12,12.84 2.31,0.51 4.77,0.04 7.38,-1.41 2.61,-1.45 5.22,-3.58 7.84,-6.41 2.61,-2.83 5.19,-6.14 7.74,-9.91 1.44,-2.14 2.85,-4.3 4.22,-6.5 0.36,-1.9 0.75,-3.79 1.14,-5.67 0.88,-4.22 1.81,-8.31 2.76,-12.27 0.95,-3.97 1.88,-7.65 2.76,-11.05 1.17,-4.41 2.13,-8.25 2.87,-11.52 0.74,-3.27 1.18,-5.66 1.33,-7.18 -0.14,-1.26 -0.28,-2.3 -0.42,-3.12 -0.14,-0.82 -0.35,-1.67 -0.64,-2.55l-0.43 -0.94 -0 0.19c-0.29,-0.38 -0.47,-0.69 -0.54,-0.94 -0.07,-0.25 -0.11,-0.69 -0.1,-1.32 -0.14,-1.64 0.41,-2.74 1.64,-3.3 1.23,-0.57 2.5,-0.97 3.8,-1.23 2.46,-0.25 4.48,-0.28 6.08,-0.09 1.59,0.19 2.96,0.47 4.11,0.85 3.9,1.64 6.64,4.22 8.21,7.75 1.58,3.53 2.28,7.31 2.12,11.33 -0.01,2.01 -0.64,5.41 -1.89,10.2 -1.25,4.79 -2.68,10.2 -4.3,16.24 -1.62,6.04 -3.23,12.34 -4.85,18.88 -1.62,6.54 -2.87,12.59 -3.76,18.13 -0.89,5.54 -1.16,10.16 -0.82,13.88 0.34,3.72 1.68,5.83 3.99,6.33 3.18,0.63 6.73,-0.44 10.64,-3.2 3.92,-2.77 7.77,-6.29 11.54,-10.57 3.78,-4.28 7.19,-8.78 10.25,-13.5 3.05,-4.72 5.38,-8.72 6.99,-11.99 -2.01,-3.4 -3.58,-7.5 -4.72,-12.28 -1.14,-4.78 -1.77,-9.73 -1.89,-14.83 -0.12,-5.1 0.3,-10.11 1.25,-15.02 0.96,-4.91 2.57,-9.22 4.83,-12.93 2.26,-3.71 5.23,-6.54 8.92,-8.49 3.7,-1.95 8.14,-2.54 13.35,-1.78 3.04,0.38 5.27,1.9 6.7,4.54 1.44,2.65 1.89,6.49 1.36,11.52 -0.53,5.04 -2.11,11.27 -4.74,18.7 -2.63,7.43 -6.5,16.11 -11.6,26.05 2.45,2.27 5.37,3.47 8.77,3.6 3.39,0.13 6.83,-0.5 10.31,-1.88 1.75,-0.7 3.47,-1.55 5.15,-2.57 0.72,-3.16 1.51,-6.33 2.38,-9.51 1.69,-6.17 3.37,-11.93 5.06,-17.28 1.69,-5.35 3.22,-10.13 4.61,-14.35 1.39,-4.21 2.38,-7.46 2.97,-9.72 0.29,-1.13 1.38,-2.14 3.27,-3.02 1.88,-0.88 4.13,-1.57 6.73,-2.07 2.6,-0.5 5.24,-0.81 7.92,-0.94 2.68,-0.12 4.95,-0.03 6.83,0.29 1.88,0.32 3.07,0.89 3.57,1.7 0.5,0.82 -0.11,1.85 -1.86,3.11 -1.16,0.75 -2.36,2.55 -3.6,5.38 -1.24,2.83 -2.56,6.36 -3.95,10.57 -1.39,4.22 -2.75,8.87 -4.07,13.98 -1.33,5.1 -2.58,10.35 -3.76,15.77 -1.18,5.42 -2.28,10.76 -3.32,16.05 -1.03,5.29 -1.85,10.14 -2.45,14.54 -0.15,1.01 -0.3,2.61 -0.45,4.82 -0.15,2.2 -0.12,4.44 0.08,6.7 0.21,2.27 0.67,4.31 1.38,6.14 0.72,1.82 1.94,2.93 3.67,3.31 2.89,0.63 6,-0.44 9.34,-3.21 3.34,-2.77 6.68,-6.41 10.02,-10.94 3.35,-4.53 6.62,-9.56 9.82,-15.1 2.34,-4.03 4.51,-7.94 6.54,-11.74 0.4,-1.62 0.81,-3.24 1.24,-4.87 1.54,-5.92 3.16,-11.74 4.85,-17.47 1.69,-5.73 3.16,-10.86 4.4,-15.39 1.25,-4.53 2.24,-8.28 2.98,-11.24 0.74,-2.96 0.96,-4.63 0.67,-5 -0.86,-0.88 -1.8,-1.86 -2.81,-2.93 -1.01,-1.07 -1.62,-2.08 -1.83,-3.02 -0.21,-0.95 0.23,-1.8 1.31,-2.55 1.09,-0.76 3.29,-1.26 6.62,-1.5 6.22,-0.5 10.81,-0.02 13.77,1.43 2.96,1.45 4.9,3.4 5.83,5.86 0.93,2.45 1.13,5.1 0.62,7.93 -0.52,2.83 -1.14,5.45 -1.88,7.84 -0.73,2.14 -1.35,4.03 -1.87,5.67 -0.51,1.64 -0.99,3.3 -1.43,5 -0.44,1.7 -0.92,3.46 -1.43,5.29 -0.51,1.83 -1.13,3.94 -1.87,6.33 1.17,-1.76 2.44,-3.49 3.82,-5.19 1.38,-1.7 2.73,-3.37 4.04,-5.01 3.49,-3.9 6.97,-7.92 10.46,-12.08 3.49,-4.15 7.15,-7.96 11,-11.42 3.84,-3.46 7.83,-6.29 11.96,-8.49 4.13,-2.2 8.51,-3.3 13.13,-3.3 6.51,0 11.31,1.74 14.4,5.21 3.09,3.47 4.05,7.97 2.87,13.51 -0.3,1.13 -1.24,4.03 -2.85,8.69 -1.61,4.66 -3.52,10.13 -5.71,16.43 -2.19,6.29 -4.43,12.99 -6.7,20.11 -2.27,7.11 -4.07,13.66 -5.4,19.64 -1.33,5.98 -2.03,10.92 -2.12,14.82 -0.09,3.9 0.95,5.86 3.12,5.86 1.59,0 3.66,-1.2 6.2,-3.58 2.54,-2.39 5.23,-5.47 8.06,-9.25 2.83,-3.78 5.75,-7.93 8.73,-12.46 2.9,-4.4 5.63,-8.69 8.18,-12.86 1.04,-5.35 2.48,-10.66 4.3,-15.93 2.42,-6.99 5.52,-13.63 9.3,-19.92 3.78,-6.29 8.11,-11.76 12.97,-16.42 4.86,-4.66 10.3,-8.21 16.31,-10.66 6.01,-2.45 12.41,-3.3 19.21,-2.53 3.61,0.51 6.75,2.62 9.41,6.33 2.66,3.72 4.49,7.72 5.48,12 0.3,-2.14 0.89,-4.31 1.76,-6.52 0.88,-2.2 1.68,-4.06 2.41,-5.57 0.88,-2.39 2.22,-4.09 4.04,-5.09 1.81,-1.01 3.8,-1.58 5.97,-1.7 2.17,-0.12 4.38,0.1 6.61,0.67 2.24,0.57 4.15,1.29 5.74,2.18 1.59,0.88 2.78,1.77 3.57,2.65 0.79,0.88 0.75,1.58 -0.12,2.08 -1.45,0.88 -2.83,3.14 -4.15,6.8 -1.32,3.65 -2.64,8.12 -3.96,13.41 -1.32,5.29 -2.54,10.95 -3.65,17 -1.11,6.04 -2.11,11.83 -3,17.37 -0.89,5.54 -1.6,10.48 -2.12,14.82 -0.53,4.34 -0.86,7.4 -1.02,9.16zm-203.82 -119.16c-0.01,2.02 -0.89,4.44 -2.63,7.27 -1.75,2.83 -3.85,5.54 -6.32,8.12 -2.47,2.58 -5.04,4.72 -7.73,6.42 -2.68,1.7 -4.96,2.42 -6.84,2.16 -2.17,-0.38 -3.72,-1.95 -4.64,-4.73 -0.93,-2.77 -1.2,-5.85 -0.83,-9.25 0.38,-3.4 1.37,-6.67 2.97,-9.82 1.6,-3.15 3.78,-5.22 6.53,-6.23 1.74,-0.63 3.76,-0.94 6.08,-0.94 2.32,0 4.45,0.29 6.4,0.86 1.95,0.57 3.61,1.36 4.98,2.37 1.37,1.01 2.05,2.26 2.04,3.78zm-78.73 51.88c-2.45,-0.76 -4.59,-0.03 -6.41,2.17 -1.81,2.2 -3.31,5.19 -4.48,8.97 -1.17,3.78 -1.91,7.96 -2.22,12.56 -0.31,4.6 -0.11,8.97 0.6,13.13 2.62,-4.4 4.92,-8.75 6.88,-13.03 1.97,-4.28 3.51,-8.15 4.6,-11.61 1.1,-3.46 1.76,-6.3 1.99,-8.5 0.23,-2.2 -0.1,-3.43 -0.96,-3.68zm-146.77 89.03c1.73,0 3.76,-0.47 6.08,-1.41 2.32,-0.94 4.56,-2.14 6.74,-3.58 2.18,-1.45 4.13,-3.05 5.87,-4.81 1.74,-1.76 2.83,-3.4 3.27,-4.91 -3.32,-0.88 -6.28,-2.77 -8.87,-5.67 -2.59,-2.9 -4.78,-6.36 -6.57,-10.39 -1.79,-4.03 -3.22,-8.47 -4.28,-13.32 -1.06,-4.85 -1.7,-9.7 -1.89,-14.55 -0.2,-4.85 0.04,-9.54 0.71,-14.07 0.67,-4.53 1.74,-8.5 3.2,-11.9 -1.45,1.76 -3.24,5.07 -5.36,9.91 -2.12,4.85 -4.09,10.42 -5.93,16.71 -1.83,6.3 -3.34,12.84 -4.53,19.64 -1.18,6.8 -1.68,13.03 -1.49,18.7 0.2,5.67 1.26,10.36 3.2,14.07 1.93,3.72 5.22,5.58 9.85,5.58zm29.16 -22.64c1.6,-2.14 3.49,-5.44 5.68,-9.91 2.19,-4.47 4.16,-9.41 5.92,-14.82 1.76,-5.41 3.12,-11.01 4.08,-16.81 0.97,-5.79 1.13,-11.08 0.5,-15.86 -0.63,-4.79 -2.28,-8.69 -4.94,-11.72 -2.66,-3.03 -6.74,-4.54 -12.23,-4.54 -4.92,-0 -8.72,2.13 -11.41,6.41 -2.69,4.28 -4.71,10.07 -6.04,17.37 -0.89,4.03 -1.37,8.66 -1.47,13.88 -0.09,5.22 0.5,10.29 1.78,15.2 1.28,4.91 3.36,9.29 6.23,13.13 2.88,3.84 6.84,6.4 11.9,7.66z"/>
  <path class="fil2" d="M448.91 809.06c-2.35,17.57 1.28,30.12 6.51,39.78 14.8,27.31 46.99,19.18 68.97,3.32 7.25,-5.23 13.3,-11.39 19.54,-18.38 6.25,-6.99 11.82,-14.05 16.71,-21.17 13.51,-19.65 11.21,-24.26 21.19,-41.77 4.49,-7.88 9.52,-14.11 15.08,-18.7 5.56,-4.58 11.35,-7.7 17.37,-9.34 6.02,-1.64 11.73,-2.28 17.13,-1.93 6.48,0.48 11.48,2.39 14.98,5.75 3.5,3.36 5.92,7.54 7.24,12.54 1.33,5 1.78,10.53 1.35,16.59 -0.43,6.06 -1.37,12 -2.81,17.82 -1.44,5.82 -3.19,11.26 -5.23,16.32 -2.05,5.06 -3.96,9.06 -5.73,12 2.16,0.47 4.46,0.03 6.89,-1.32 2.44,-1.35 4.88,-3.35 7.32,-5.99 2.45,-2.65 4.85,-5.73 7.23,-9.26 1.94,-2.88 3.82,-5.82 5.63,-8.82 0.64,-2.69 1.29,-5.4 1.94,-8.11 1.44,-6 2.79,-11.88 4.02,-17.65 1.24,-5.76 2.01,-10.94 2.29,-15.53 0.14,-1.77 -0.12,-3.27 -0.79,-4.51 -0.67,-1.24 -1.41,-2.26 -2.22,-3.09 -0.81,-0.82 -1.51,-1.53 -2.12,-2.12 -0.61,-0.59 -0.74,-1.09 -0.4,-1.5 0.34,-0.41 1.25,-0.79 2.74,-1.15 1.49,-0.35 3.92,-0.76 7.3,-1.23 3.79,-0.58 6.89,-0.11 9.32,1.42 2.43,1.53 4.31,3.53 5.65,6 1.34,2.47 2.21,5.15 2.6,8.03 0.39,2.88 0.52,5.44 0.37,7.68 -0.42,2.47 -0.9,4.97 -1.45,7.5 -0.55,2.53 -1.17,4.91 -1.85,7.15 0.81,-0.82 1.97,-2.59 3.47,-5.29 1.5,-2.7 3.3,-5.76 5.41,-9.17 2.11,-3.41 4.52,-6.82 7.24,-10.23 2.71,-3.41 5.63,-6.23 8.75,-8.46 0,-0.47 0.27,-0.91 0.82,-1.32 0.54,-0.41 1.69,-0.91 3.45,-1.5 2.03,-0.94 4.4,-1.53 7.1,-1.76 9.19,-0.11 14.61,3.1 16.28,9.63 1.66,6.53 0.57,16.92 -3.27,31.15 2.99,-3.41 6.31,-7.47 9.98,-12.17 3.66,-4.71 7.47,-9.17 11.4,-13.41 3.94,-4.23 7.97,-7.85 12.1,-10.84 4.14,-3 8.16,-4.5 12.08,-4.49 6.08,0.01 10.57,1.63 13.46,4.87 2.89,3.24 3.79,7.45 2.68,12.62 -0.27,1.06 -1.1,3.82 -2.47,8.29 -1.37,4.47 -2.94,9.77 -4.73,15.88 -1.78,6.12 -3.57,12.59 -5.35,19.41 -1.79,6.82 -3.23,13.12 -4.34,18.88 -1.11,5.77 -1.59,10.53 -1.48,14.3 0.12,3.76 1.19,5.65 3.22,5.65 2.03,0 4.47,-1.47 7.32,-4.41 2.85,-2.94 5.8,-6.67 8.86,-11.2l1.2 -1.78c2.16,-16.61 3.64,-33.69 6.64,-50.59 1.03,-5.79 1.74,-10.56 2.15,-14.32 0.4,-3.76 1.55,-5.87 0.94,-6.74 -0.69,-1 -1.48,-1.96 -2.31,-2.89 -0.83,-0.93 -1.34,-1.8 -1.51,-2.58 -0.17,-0.78 0.2,-1.49 1.11,-2.12 0.91,-0.63 2.75,-1.08 5.52,-1.36 15.53,-1.63 18.37,7.75 15.13,19.38 -0.88,3.14 -1.52,6.35 -2.19,9.53 -0.72,3.47 -1.56,6.92 -2.37,10.37 16.5,-24.96 17.08,-44.56 48.53,-39.83 6.12,0.92 8.15,3.96 11.12,6.34 6.62,5.27 14.95,55.85 -19.33,79.98 -4.2,2.96 13.04,-5.23 24.51,-17.46 0.15,-0.86 0.32,-1.74 0.5,-2.62 1.31,-6.41 3.27,-12.82 5.86,-19.23 2.59,-6.41 5.69,-12.59 9.3,-18.52 3.61,-5.94 7.65,-11.14 12.12,-15.61 4.48,-4.47 9.36,-8 14.64,-10.58 5.28,-2.59 10.76,-3.7 16.43,-3.34 5.13,0.36 9.04,2.63 11.73,6.8 2.68,4.18 4.55,9.15 5.61,14.92 0.29,-4.12 1.01,-7.71 2.17,-10.76 1.16,-3.06 2.02,-5.06 2.56,-6 1.23,-2.82 3.39,-4.5 6.51,-5.03 3.11,-0.53 6.15,-0.46 9.12,0.19 2.97,0.65 5.4,1.59 7.28,2.83 1.89,1.24 2.29,2.27 1.2,3.09 -0.95,0.71 -2.07,3.03 -3.37,6.97 -1.3,3.94 -2.64,8.68 -4.01,14.2 -1.37,5.53 -2.71,11.56 -4.03,18.09 -1.31,6.53 -2.55,12.73 -3.72,18.62 -1.17,5.88 -2.17,11.09 -3,15.62 -0.83,4.53 -1.38,7.62 -1.66,9.26 -0.14,0.82 -0.21,1.97 -0.22,3.44 -0,1.47 0.23,2.71 0.69,3.71 0.47,1 1.31,1.47 2.53,1.41 1.22,-0.06 2.98,-1.14 5.28,-3.26 2.58,-2.47 5.46,-5.85 8.66,-10.14 3.19,-4.29 6.39,-9.05 9.59,-14.29 2.06,-3.38 4.11,-6.86 6.15,-10.43 0.33,-1.31 0.66,-2.63 1.01,-3.95 1.44,-5.53 2.95,-10.97 4.53,-16.32 1.57,-5.35 2.95,-10.15 4.11,-14.38 1.16,-4.24 2.09,-7.73 2.78,-10.5 0.68,-2.77 0.9,-4.32 0.63,-4.68 -0.81,-0.82 -1.68,-1.74 -2.62,-2.74 -0.94,-1 -1.51,-1.94 -1.71,-2.82 -0.2,-0.88 0.21,-1.68 1.23,-2.38 1.02,-0.71 3.08,-1.17 6.19,-1.41 5.81,-0.46 10.1,-0.02 12.86,1.34 2.76,1.36 4.58,3.18 5.45,5.48 0.87,2.29 1.06,4.76 0.57,7.41 -0.48,2.65 -1.07,5.09 -1.75,7.33 -0.68,2 -1.26,3.76 -1.75,5.29 -0.48,1.53 -0.92,3.09 -1.34,4.68 -0.41,1.59 -0.86,3.23 -1.34,4.94 -0.48,1.7 -1.06,3.68 -1.75,5.91 1.09,-1.65 2.28,-3.27 3.57,-4.85 1.29,-1.59 2.55,-3.15 3.77,-4.68 3.26,-3.64 6.52,-7.41 9.78,-11.29 3.26,-3.88 6.68,-7.44 10.28,-10.67 3.59,-3.23 7.32,-5.88 11.18,-7.93 3.86,-2.06 7.95,-3.08 12.28,-3.08 6.08,0.01 10.57,1.63 13.46,4.87 2.89,3.24 3.79,7.45 2.68,12.62 -0.27,1.06 -1.16,3.76 -2.67,8.12 -1.5,4.35 -3.28,9.47 -5.33,15.35 -2.05,5.88 -4.14,12.15 -6.26,18.79 -2.12,6.65 -3.8,12.76 -5.04,18.35 -1.24,5.59 -1.9,10.2 -1.98,13.85 -0.08,3.65 0.89,5.47 2.92,5.47 1.48,0 3.42,-1.11 5.79,-3.35 2.37,-2.24 4.88,-5.12 7.53,-8.64 2.65,-3.53 5.37,-7.41 8.15,-11.64 2.79,-4.23 5.41,-8.35 7.86,-12.35 1.04,-1.71 2.03,-3.35 2.97,-4.93 0.85,-4.21 1.74,-8.37 2.68,-12.45 1.58,-6.88 3.03,-13.24 4.34,-19.06 1.31,-5.82 1.97,-10.5 1.98,-14.03 0.01,-1.65 -0.22,-3 -0.69,-4.06 -0.47,-1.06 -0.84,-2.06 -1.1,-3 0.14,-1.3 0.75,-2.21 1.83,-2.73 1.09,-0.53 2.34,-0.79 3.69,-0.79 2.06,0 3.58,0.27 4.59,0.8 1.04,0.53 2.02,1.09 2.96,1.68 3.54,1.77 5.99,4.36 7.33,7.77 1.37,3.41 2.17,7 2.42,10.77 -0.29,5.3 -1.02,10.53 -2.23,15.71 -1.2,5.18 -2.48,10.47 -3.88,15.88 -1.41,5.41 -2.65,11 -3.79,16.77 -1.14,5.76 -1.77,11.82 -1.93,18.18 -0.3,6.35 1.04,10.27 4.01,11.74 2.96,1.47 6.62,0.47 10.95,-2.99 4.34,-3.47 8.96,-9.41 13.86,-17.82 4.9,-8.41 9.2,-19.32 12.9,-32.73l0 0.18 1.02 -2.47c1.51,-5.29 2.64,-10.2 3.41,-14.74 0.76,-4.53 1.43,-9.5 1.99,-14.91 0.15,-2.59 -0.48,-4.8 -1.9,-6.62 -1.41,-1.83 -2.45,-3.27 -3.13,-4.33 -0.67,-1.06 -0.3,-1.85 1.13,-2.38 1.42,-0.53 5.04,-0.79 10.85,-0.79 4.19,0 7.39,1.1 9.61,3.27 2.22,2.18 3.73,5.03 4.52,8.56 0.8,3.53 1.02,7.44 0.66,11.74 -0.36,4.29 -0.91,8.53 -1.67,12.71 -0.76,4.17 -1.62,8.09 -2.58,11.73 -0.96,3.65 -1.65,6.47 -2.06,8.47 -1.79,7.18 -3.19,13.12 -4.23,17.82 -1.03,4.71 -1.62,8.65 -1.77,11.83 -0,0.94 0.06,2 0.19,3.18 0.13,1.18 0.36,2.26 0.7,3.27 0.33,1 0.77,1.85 1.31,2.56 0.54,0.7 1.21,1.06 2.02,1.06 1.62,0 3.62,-1.18 5.99,-3.53 2.37,-2.35 4.85,-5.38 7.43,-9.08 2.59,-3.7 5.2,-7.79 7.86,-12.26 2.65,-4.47 5.13,-8.79 7.45,-12.97 2.31,-4.17 4.36,-7.91 6.13,-11.2 1.77,-3.29 3.06,-5.64 3.88,-7.06 0,-0.12 0.03,-0.26 0.1,-0.44 0.07,-0.18 0.11,-0.32 0.1,-0.44l0.41 -0.53c0.54,-0.94 1.09,-1.65 1.63,-2.12 0.54,-0.47 1.42,-0.7 2.64,-0.7 1.08,0 1.86,0.29 2.33,0.88 0.47,0.59 1.04,1.3 1.71,2.12 -1.77,2.82 -3.98,6.94 -6.64,12.35 -2.66,5.41 -5.59,11.15 -8.79,17.2 -3.2,6.06 -6.67,11.97 -10.41,17.73 -3.74,5.76 -7.55,10.41 -11.41,13.93 -3.86,3.52 -7.76,5.44 -11.68,5.73 -3.92,0.29 -7.69,-1.98 -11.32,-6.8 -1.38,7.65 -3.04,15.23 -4.96,22.77 -1.92,7.53 -4.18,14.7 -6.78,21.53 -2.59,6.82 -5.53,13.14 -8.79,18.96 -3.27,5.82 -6.87,10.82 -10.81,15 -3.94,4.17 -8.17,7.38 -12.71,9.61 -4.54,2.23 -9.37,3.17 -14.51,2.81 -4.73,-0.59 -8.6,-2.83 -11.63,-6.72 -3.03,-3.89 -4.59,-8.65 -4.7,-14.3 -0.27,-1.53 -0.33,-2.97 -0.19,-4.32 0.14,-1.35 0.35,-2.73 0.63,-4.15 1.79,-7.06 4.58,-13.41 8.39,-19.06 3.81,-5.64 8.19,-10.94 13.14,-15.87 4.95,-4.94 10.31,-9.64 16.07,-14.11 5.76,-4.47 11.49,-8.99 17.18,-13.58 0,-0.12 0.11,-0.56 0.31,-1.32 0.21,-0.77 0.45,-1.71 0.72,-2.82 0.28,-1.12 0.58,-2.3 0.93,-3.53 0.33,-1.19 0.63,-2.25 0.9,-3.17 -0.96,3.26 -2.55,6.35 -4.77,9.26 -2.24,2.94 -4.92,5.5 -8.04,7.67 -3.12,2.18 -6.57,3.79 -10.36,4.85 -3.79,1.05 -7.64,1.35 -11.56,0.87 -2.84,-0.35 -5.47,-1.15 -7.9,-2.39 -2.43,-1.24 -4.55,-2.86 -6.36,-4.86 -1.82,-2 -3.23,-4.39 -4.23,-7.15 -1,-2.77 -1.43,-5.98 -1.28,-9.62 0.07,-2.68 0.24,-5.44 0.53,-8.3 -0.3,0.5 -0.6,1.01 -0.9,1.51 -2.59,4.29 -5.34,8.44 -8.26,12.44 -2.92,4 -5.98,7.47 -9.16,10.41 -3.19,2.94 -6.57,5.17 -10.16,6.69 -3.59,1.53 -7.34,2 -11.25,1.4 -3.65,-0.47 -6.58,-1.53 -8.8,-3.18 -2.22,-1.65 -3.9,-3.62 -5.04,-5.92 -1.14,-2.29 -1.77,-4.83 -1.89,-7.59 -0.12,-2.77 0.09,-5.56 0.64,-8.38 1.11,-5.65 2.35,-11.38 3.72,-17.21 1.38,-5.82 2.78,-11.44 4.22,-16.85 1.44,-5.41 2.85,-10.5 4.22,-15.26 1.37,-4.76 2.6,-8.97 3.7,-12.62 1.92,-6.47 1.96,-9.74 0.14,-9.8 -1.82,-0.06 -5.79,2.67 -11.89,8.2 -2.58,2.47 -5.16,5.26 -7.74,8.38 -2.58,3.12 -5.06,6.32 -7.44,9.61 -2.38,3.29 -4.66,6.5 -6.83,9.61 -2.17,3.12 -4.15,5.91 -5.91,8.38l-2.86 4.23 0 -0.17 -2.85 3.88c-1.91,3.88 -3.61,8.24 -5.12,13.06 -1.51,4.82 -2.61,9.41 -3.3,13.76 -0.14,1.29 -0.15,2.71 -0.01,4.24 -0.28,2.24 -0.32,4.12 -0.13,5.65 0.2,1.53 0.36,2.82 0.49,3.88 0.27,0.47 0.44,0.85 0.5,1.15 0.07,0.29 0.1,0.56 0.1,0.79 0.13,1.41 -1.02,2.12 -3.45,2.12 -3.65,-0 -6.48,-0.71 -8.5,-2.13 -2.02,-1.41 -3.47,-3.21 -4.34,-5.39 -0.87,-2.18 -1.37,-4.68 -1.49,-7.5 -0.12,-2.82 -0.11,-5.65 0.04,-8.47 0.09,-1.27 0.21,-2.6 0.37,-3.98 -3.42,5.11 -7.08,9.7 -10.95,13.77 -4.2,4.41 -8.61,7.9 -13.22,10.49 -4.6,2.58 -9.4,3.58 -14.4,2.99 -2.97,-0.35 -5.37,-1.36 -7.19,-3.01 -1.81,-1.65 -3.26,-3.62 -4.33,-5.92 -1.07,-2.29 -1.77,-4.79 -2.1,-7.5 -0.33,-2.71 -0.48,-5.36 -0.47,-7.94 -1.9,2.59 -4.04,5.35 -6.42,8.29 -2.38,2.94 -5.12,5.64 -8.24,8.11 -3.12,2.47 -6.67,4.47 -10.67,5.99 -3.99,1.53 -8.62,2.17 -13.89,1.93 -3.92,-0.12 -7.3,-0.86 -10.13,-2.21 -2.83,-1.35 -5.19,-3.12 -7.07,-5.3 -1.88,-2.18 -3.29,-4.71 -4.22,-7.59 -0.93,-2.89 -1.4,-5.91 -1.38,-9.09 -0.02,-0.92 -0.02,-1.86 0,-2.81 -16.53,18.72 -39.7,28.23 -69.51,14.18 -3.98,24.87 -9.8,47.69 -6.97,73.08 0.63,5.83 -0.54,6.27 -0.03,6.31 -3.82,4.64 -11.37,5.3 -14.61,0.66 -2.13,-3.2 -3.57,-6.99 -4.09,-10.64 -0.54,-5.25 -0.63,-11.38 -0.25,-18.38 0.38,-7 1.1,-14.49 2.15,-22.46 1.05,-7.97 2.35,-16.16 3.89,-24.59 0.24,-1.34 0.48,-2.69 0.71,-4.04 -3.42,3.6 -6.94,6.6 -10.57,9 -4.54,3 -9.24,4.26 -14.1,3.78 -4.86,-0.35 -8.4,-2.24 -10.62,-5.66 -2.22,-3.41 -3.48,-7.68 -3.8,-12.8 -0.32,-5.12 0.01,-10.85 0.99,-17.21 0.97,-6.36 2.21,-12.65 3.73,-18.88 1.51,-6.23 3.02,-12.2 4.53,-17.91 1.51,-5.71 2.61,-10.44 3.3,-14.21 0.56,-3.41 0.53,-5.53 -0.07,-6.35 -0.61,-0.83 -1.52,-0.91 -2.74,-0.27 -1.22,0.65 -2.58,1.71 -4.07,3.18 -1.49,1.47 -2.78,2.79 -3.86,3.96 -1.9,2.12 -3.91,4.56 -6.01,7.32 -2.1,2.76 -4.17,5.53 -6.21,8.29 -2.04,2.77 -3.94,5.41 -5.71,7.94 -1.77,2.53 -3.26,4.73 -4.49,6.61 -5.71,8.82 -10.11,17.47 -13.18,25.94 -3.08,8.47 -3.55,17.18 -1.43,26.12 0.26,1.18 0.4,1.82 0.4,1.94 -0,1.3 -1.23,2 -3.66,2.12 -4.33,0.47 -7.5,-0.95 -9.51,-4.25 -2.01,-3.29 -3.28,-7.62 -3.8,-12.97 -0.52,-5.35 -0.39,-11.44 0.38,-18.27 0.77,-6.83 1.81,-13.53 3.13,-20.12 1.31,-6.59 2.65,-12.74 4.03,-18.44 1.37,-5.71 2.54,-10.15 3.5,-13.32 0.55,-2.24 0.83,-4.06 0.83,-5.47 0,-1.41 -0.4,-2.26 -1.21,-2.56 -0.81,-0.3 -2.03,0.11 -3.65,1.23 -1.63,1.12 -3.8,3.09 -6.51,5.91 -5.71,7.41 -11.01,14.84 -15.9,22.32 -4.9,7.46 -8.91,14.55 -12.05,21.25 -1.91,4 -3.55,8.38 -4.92,13.15 -1.37,4.76 -2.2,9.32 -2.49,13.68l-0.42 4.24c-0.01,2.23 0.12,4.12 0.38,5.65 0.26,1.53 0.53,2.82 0.8,3.88 0.26,1.18 0.4,1.82 0.4,1.94 -0,1.41 -1.16,2.12 -3.45,2.12 -3.65,-0 -6.55,-0.68 -8.71,-2.04 -2.16,-1.35 -3.81,-3.12 -4.95,-5.3 -1.14,-2.18 -1.87,-4.65 -2.2,-7.41 -0.33,-2.77 -0.41,-5.56 -0.27,-8.39l0.43 -5.82c0.21,-1.79 0.48,-3.66 0.81,-5.62 -1.34,1.5 -2.73,2.9 -4.15,4.2 -3.46,3.18 -7.22,5.62 -11.28,7.32 -4.06,1.7 -8.32,2.14 -12.77,1.31 -2.85,3.29 -5.84,6.41 -8.96,9.35 -3.12,2.94 -6.48,5.46 -10.06,7.58 -3.59,2.12 -7.38,3.67 -11.37,4.67 -3.99,1 -8.22,1.14 -12.67,0.43 -6.08,-0.94 -10.76,-3.33 -14.06,-7.16 -3.29,-3.83 -5.61,-8.24 -6.94,-13.25 -1.12,-4.19 -1.69,-8.56 -1.7,-13.08 -8.46,37.23 -71.34,85.84 -123.35,58.34 -19.52,-10.32 -24.32,-35.96 -24.49,-55.18 -1.64,-183.35 163.43,-224.48 168.94,-118.59 1.21,23.3 -24.78,53.52 -57.91,31.05 -2.52,-1.71 -4.2,-4.24 -5.75,-6.89 -1.54,-2.65 -2.58,-5.51 -3.11,-8.56 -0.92,-5.88 -0.74,-10.15 0.56,-12.8 1.3,-2.65 2.79,-4.03 4.48,-4.15 1.69,-0.11 3.1,0.95 4.24,3.18 1.14,2.24 1.09,5.24 -0.14,9 -6.47,17.4 40.18,36.53 44.43,-10.73 0.42,-4.71 0,-9.21 -1.26,-13.51 -1.27,-4.29 -3.41,-8.03 -6.44,-11.21 -3.03,-3.18 -6.93,-5.63 -11.72,-7.33 -4.79,-1.71 -10.36,-2.21 -16.72,-1.51 -7.16,0.7 -14.3,3.11 -21.41,7.22 -7.11,4.11 -14.53,9.13 -20.54,16.22 -27.2,32.12 -45.64,77.64 -50.86,116.66zm182.37 12.29c1.49,-2 3.26,-5.08 5.31,-9.26 2.04,-4.17 3.89,-8.79 5.53,-13.85 1.64,-5.06 2.92,-10.29 3.82,-15.7 0.9,-5.41 1.06,-10.35 0.46,-14.83 -0.59,-4.47 -2.13,-8.12 -4.62,-10.94 -2.49,-2.83 -6.3,-4.24 -11.43,-4.25 -4.59,-0 -8.15,1.99 -10.67,5.99 -2.51,4 -4.4,9.41 -5.64,16.23 -0.83,3.77 -1.28,8.09 -1.37,12.97 -0.09,4.88 0.47,9.62 1.67,14.21 1.2,4.59 3.14,8.68 5.83,12.27 2.69,3.59 6.39,5.98 11.12,7.16zm-27.25 21.16c1.62,0 3.51,-0.44 5.68,-1.32 2.17,-0.88 4.27,-2 6.3,-3.35 2.03,-1.35 3.86,-2.85 5.49,-4.5 1.63,-1.65 2.65,-3.18 3.06,-4.59 -3.11,-0.83 -5.87,-2.59 -8.29,-5.3 -2.42,-2.71 -4.47,-5.95 -6.14,-9.71 -1.67,-3.77 -3.01,-7.92 -4,-12.45 -0.99,-4.53 -1.58,-9.06 -1.77,-13.59 -0.18,-4.53 0.04,-8.91 0.66,-13.15 0.63,-4.24 1.62,-7.94 2.99,-11.12 -1.36,1.65 -3.02,4.73 -5,9.26 -1.98,4.53 -3.82,9.73 -5.53,15.61 -1.71,5.88 -3.13,12 -4.23,18.35 -1.11,6.35 -1.57,12.18 -1.39,17.47 0.18,5.3 1.17,9.68 2.99,13.15 1.81,3.47 4.88,5.21 9.2,5.21zm353.25 -92.02c-4.73,0.58 -9.3,3.17 -13.71,7.75 -4.41,4.59 -8.39,10.14 -11.93,16.67 -3.54,6.53 -6.51,13.53 -8.9,20.99 -2.4,7.47 -3.98,14.47 -4.75,21 -0.77,6.53 -0.59,12 0.54,16.41 1.13,4.42 3.45,6.86 6.96,7.33 2.97,0.35 5.91,-0.17 8.82,-1.58 2.91,-1.41 5.75,-3.38 8.54,-5.91 2.78,-2.53 5.36,-5.44 7.74,-8.73 2.38,-3.29 4.55,-6.67 6.53,-10.14 1.97,-3.47 3.68,-6.82 5.11,-10.06 1.43,-3.23 2.49,-6.09 3.18,-8.56 0.41,-1.06 0.79,-2.97 1.14,-5.74 0.35,-2.76 0.6,-5.88 0.75,-9.35 0.15,-3.47 0.13,-7.03 -0.06,-10.68 -0.19,-3.65 -0.65,-6.98 -1.38,-9.98 -0.73,-3 -1.77,-5.38 -3.11,-7.15 -1.35,-1.77 -3.16,-2.53 -5.46,-2.3zm167.56 159.34c-0.01,3.41 0.55,6.06 1.69,7.94 1.14,1.89 2.52,3.03 4.14,3.45 1.62,0.41 3.41,0.12 5.38,-0.88 1.96,-1 3.76,-2.68 5.39,-5.03 2.04,-3.17 4.05,-6.62 6.02,-10.32 1.98,-3.7 4.06,-8.02 6.24,-12.97 2.18,-4.94 4.4,-10.7 6.66,-17.29 2.26,-6.59 4.62,-14.41 7.09,-23.47 -3.94,3.76 -8.35,8.11 -13.23,13.05 -4.89,4.94 -9.5,10.02 -13.85,15.25 -4.35,5.23 -7.98,10.47 -10.91,15.7 -2.93,5.23 -4.47,10.08 -4.62,14.55zm-292.4 -84.65c28.26,17.85 50.4,-34.33 46.13,-57.27 -2.69,-14.44 -26.63,-20.88 -46.13,57.27z"/>
 </g>
</svg>
